<?xml version="1.0" encoding="UTF-8"?>
<!DOCTYPE svg PUBLIC "-//W3C//DTD SVG 1.1//EN" "http://www.w3.org/Graphics/SVG/1.1/DTD/svg11.dtd">
<svg xmlns="http://www.w3.org/2000/svg" version="1.1" width="512px" height="512px" style="shape-rendering:geometricPrecision; text-rendering:geometricPrecision; image-rendering:optimizeQuality; fill-rule:evenodd; clip-rule:evenodd" xmlns:xlink="http://www.w3.org/1999/xlink">
<g><path style="opacity:0.975" fill="#000000" d="M 141.5,118.5 C 168.827,117.795 194.327,124.129 218,137.5C 223.155,144.39 223.822,151.723 220,159.5C 215.878,165.291 211.378,170.791 206.5,176C 203.387,177.779 200.054,178.945 196.5,179.5C 152.051,159.325 113.218,166.992 80,202.5C 58.9178,231.677 55.9178,262.677 71,295.5C 91.8793,331.355 123.046,346.521 164.5,341C 173.519,338.994 182.186,335.994 190.5,332C 199.044,329.856 205.877,332.356 211,339.5C 215.426,344.689 219.093,350.356 222,356.5C 223.796,364.728 221.296,371.228 214.5,376C 154.462,403.742 99.9618,395.575 51,351.5C 11.9743,308.036 2.30763,258.703 22,203.5C 45.6287,152.432 85.462,124.098 141.5,118.5 Z"/></g>
<g><path style="opacity:0.981" fill="#000000" d="M 256.5,190.5 C 265.839,190.334 275.173,190.5 284.5,191C 289,192.833 292.167,196 294,200.5C 294.5,211.161 294.667,221.828 294.5,232.5C 305.91,232.067 317.244,232.567 328.5,234C 332.058,235.892 334.558,238.725 336,242.5C 343.365,277.293 329.532,290.293 294.5,281.5C 303.285,316.54 290.285,330.373 255.5,323C 250.572,321.073 247.406,317.573 246,312.5C 245.5,302.172 245.334,291.839 245.5,281.5C 234.828,281.667 224.161,281.5 213.5,281C 204.106,275.955 200.772,268.122 203.5,257.5C 203.667,252.833 203.833,248.167 204,243.5C 205.474,238.026 208.974,234.526 214.5,233C 224.828,232.5 235.161,232.334 245.5,232.5C 245.334,222.161 245.5,211.828 246,201.5C 247.711,195.959 251.211,192.292 256.5,190.5 Z"/></g>
<g><path style="opacity:0.977" fill="#000000" d="M 418.5,190.5 C 427.839,190.334 437.173,190.5 446.5,191C 453.053,193.601 456.553,198.434 457,205.5C 457.5,214.494 457.666,223.494 457.5,232.5C 467.506,232.334 477.506,232.5 487.5,233C 493.74,234.908 497.573,239.075 499,245.5C 499.667,253.167 499.667,260.833 499,268.5C 497.664,274.501 494.164,278.668 488.5,281C 478.172,281.5 467.839,281.666 457.5,281.5C 457.666,290.506 457.5,299.506 457,308.5C 456.553,315.566 453.053,320.399 446.5,323C 436.842,324.968 427.175,324.968 417.5,323C 412.6,321.098 409.433,317.598 408,312.5C 407.5,302.172 407.334,291.839 407.5,281.5C 396.064,281.956 384.731,281.456 373.5,280C 370.667,278.5 368.5,276.333 367,273.5C 365.41,263.574 365.077,253.574 366,243.5C 367.833,238.333 371.333,234.833 376.5,233C 386.828,232.5 397.161,232.334 407.5,232.5C 407.334,222.161 407.5,211.828 408,201.5C 410.02,196.315 413.52,192.648 418.5,190.5 Z"/></g>
</svg>
