<?xml version="1.0" encoding="UTF-8"?>
<svg version="1.1" xmlns="http://www.w3.org/2000/svg" width="512" height="512">
<path d="M0 0 C147.84 0 295.68 0 448 0 C448 6.52259024 447.98906009 12.75324527 447.39371586 19.19723606 C447.29539539 20.32610718 447.29539539 20.32610718 447.19508865 21.47778377 C446.97666826 23.97215189 446.75141839 26.46585279 446.52613831 28.95960999 C446.36557167 30.77685246 446.20543012 32.59413254 446.04567474 34.41144651 C445.60728498 39.38437222 445.16288976 44.35674544 444.71748245 49.32904685 C444.23746923 54.69960905 443.76306393 60.07066699 443.28796387 65.44166565 C442.35712175 75.95492416 441.4211737 86.46772215 440.48356313 96.98037893 C439.39164442 109.22574557 438.30511444 121.47158854 437.21888613 133.71746104 C435.28053287 155.56824828 433.33777978 177.41864201 431.39233398 199.26879883 C429.50501803 220.46616388 427.62004128 241.66373493 425.73803711 262.86157227 C425.62210969 264.16730633 425.50618226 265.47304039 425.38674188 266.81834216 C424.92075578 272.06700872 424.45478213 277.31567638 423.98882595 282.5643456 C420.41730313 322.79440872 416.84376823 363.0242949 413.26276398 403.25351524 C412.88721779 407.4725904 412.51191833 411.69168739 412.13684654 415.91080475 C411.70490118 420.7695265 411.27243234 425.62820136 410.8395431 430.48683911 C410.6832147 432.24237996 410.52706726 433.99793693 410.37112135 435.75351179 C409.62306749 444.17348285 408.86556453 452.59109657 408 461 C401.0452322 463.77516064 393.95531523 465.77565547 386.73828125 467.75390625 C385.38923629 468.12668946 384.04029116 468.49983412 382.69143677 468.87330627 C379.77146944 469.68113618 376.85092143 470.48681848 373.92990112 471.29083252 C366.76773582 473.26246648 359.60875901 475.245633 352.44942665 477.2275238 C349.8622943 477.94359757 347.27504451 478.65924596 344.68778992 479.37487793 C323.30442688 485.29158455 301.93851888 491.27082002 280.57204819 497.24818039 C276.40893823 498.41271711 272.24569565 499.57677932 268.08245468 500.74084759 C263.22026094 502.10040671 258.3581743 503.46034864 253.49609375 504.8203125 C252.59683292 505.07180117 251.6975721 505.32328983 250.77106094 505.58239937 C248.24371893 506.28926345 245.71645187 506.99639485 243.18920898 507.70361328 C242.09197242 508.01043958 242.09197242 508.01043958 240.97256947 508.32346439 C240.28463653 508.51603541 239.59670359 508.70860643 238.88792419 508.90701294 C238.23013411 509.08859074 237.57234402 509.27016853 236.8946209 509.45724869 C235.0798443 509.97712703 233.2831831 510.55903165 231.48817444 511.14352417 C224.46440183 512.86812011 218.70384011 511.96878574 211.91943359 509.99414062 C211.14763638 509.7786258 210.37583916 509.56311098 209.58065414 509.34106541 C207.01704762 508.62257743 204.45788221 507.88941278 201.8984375 507.15625 C200.05835893 506.63752724 198.21800948 506.11976453 196.37741089 505.60289001 C191.406591 504.20434281 186.4393872 502.79333401 181.47273254 501.38007736 C176.28957398 499.90752269 171.10321611 498.4463341 165.91699219 496.98461914 C159.48330959 495.17072255 153.04987686 493.3559682 146.61779785 491.53639221 C131.66954566 487.30856284 116.7100495 483.12268324 101.7421875 478.96484375 C99.7267886 478.40466089 97.71139748 477.84445 95.6960144 477.28421021 C87.9735264 475.13785101 80.25088182 472.99206377 72.52703857 470.85058594 C68.05698933 469.61105244 63.58783545 468.36834047 59.11932755 467.12326241 C57.48037413 466.66724367 55.84108392 466.21243349 54.20144272 465.75889397 C51.97751488 465.14364175 49.75474545 464.52437187 47.53222656 463.90405273 C46.28717346 463.55833725 45.04212036 463.21262177 43.75933838 462.85643005 C41 462 41 462 40 461 C39.72025988 458.89650593 39.50587088 456.78432853 39.31520081 454.67089844 C39.25269294 453.99158547 39.19018507 453.31227251 39.12578303 452.61237431 C38.91223522 450.2784179 38.70531742 447.94391834 38.49829102 445.609375 C38.34292831 443.89431073 38.18719671 442.17927985 38.03113365 440.46427917 C37.59061629 435.60858659 37.15617741 430.75236512 36.722718 425.89603806 C36.34066937 421.62341332 35.95535153 417.35108564 35.5701316 413.07874584 C34.17274802 397.57722085 32.78912095 382.07447379 31.40746784 366.57154083 C31.05863427 362.65751913 30.70960028 358.74351533 30.36051118 354.82951641 C26.2676027 308.93931473 22.19425675 263.04739173 18.13599205 217.15411377 C17.78280768 213.16019626 17.42961483 209.16627951 17.07641602 205.17236328 C16.98877631 204.18131088 16.90113661 203.19025848 16.81084116 202.16917419 C15.36948273 185.87101017 13.9239357 169.57322027 12.47681277 153.27556717 C10.97226429 136.33042243 9.47133571 119.38496014 7.97398859 102.43917751 C7.14039035 93.006183 6.30524935 83.57333097 5.46598625 74.14083862 C4.75808106 66.18458026 4.05344913 58.22804066 3.3531177 50.27111191 C2.99702195 46.22640736 2.63938774 42.18185489 2.2775135 38.13766289 C1.94618052 34.43438236 1.61935596 30.73073171 1.29601628 27.02674496 C1.12369802 25.06591456 0.94665829 23.10550082 0.76940769 21.14511013 C0.66697272 19.96158994 0.56453774 18.77806974 0.45899868 17.5586853 C0.36970669 16.55027273 0.2804147 15.54186016 0.1884169 14.50288963 C-0.07126159 9.67516401 0 4.8347045 0 0 Z M83 95 C83 102.10341937 83.10544048 108.99178689 83.65625 116.04296875 C83.72283813 116.93744217 83.78942627 117.83191559 83.85803223 118.75349426 C84.068209 121.56513192 84.28399582 124.37630467 84.5 127.1875 C84.64490539 129.11260208 84.78943976 131.03773213 84.93359375 132.96289062 C85.28478374 137.64226062 85.6409999 142.32122299 86 147 C113.07750674 147.02337257 140.15501197 147.0410006 167.23252678 147.05181217 C179.80541191 147.05696586 192.37829077 147.06399091 204.95117188 147.07543945 C215.91119043 147.0854146 226.87120445 147.09186018 237.83122742 147.09408849 C243.63307452 147.09539079 249.43490863 147.09844621 255.23675156 147.10573006 C260.70151303 147.11253491 266.16625619 147.11460787 271.6310215 147.11310768 C273.63284339 147.113382 275.63466592 147.11536056 277.63648415 147.11920547 C280.37868048 147.12421255 283.12080853 147.1229726 285.86300659 147.12025452 C286.64708637 147.12316736 287.43116615 147.1260802 288.23900592 147.12908131 C293.87346457 147.11408214 299.40389944 146.64325285 305 146 C304.94441925 146.705633 304.8888385 147.411266 304.83157349 148.13828182 C304.31465204 154.70268266 303.80185366 161.26739848 303.29101562 167.83227539 C303.09797701 170.30663525 302.9039764 172.78092026 302.70898438 175.25512695 C302.42844098 178.81702615 302.15138902 182.37918258 301.875 185.94140625 C301.74375732 187.59336754 301.74375732 187.59336754 301.60986328 189.27870178 C301.48973877 190.83952736 301.48973877 190.83952736 301.3671875 192.43188477 C301.29612793 193.3401149 301.22506836 194.24834503 301.15185547 195.18409729 C300.97519462 198.45997382 300.97611885 201.7200098 301 205 C299.85287537 204.99476318 298.70575073 204.98952637 297.52386475 204.98413086 C268.20436601 204.86460417 238.8948246 205.06257975 209.578125 205.4375 C208.72154234 205.44845451 207.86495968 205.45940903 206.98241997 205.4706955 C196.43142653 205.60618857 185.88051311 205.747424 175.3296237 205.89076424 C166.21386085 206.01446551 157.09804578 206.13410278 147.98222589 206.25351524 C129.32142562 206.4980471 110.66069158 206.74731513 92 207 C92.15633288 209.22792552 92.31347169 211.45579449 92.47094727 213.68363953 C92.55836685 214.92429011 92.64578644 216.1649407 92.7358551 217.44318676 C93.0633054 221.85243171 93.47676391 226.24753057 93.9375 230.64453125 C94.02249756 231.46580002 94.10749512 232.28706879 94.19506836 233.13322449 C94.37201164 234.83446544 94.55014889 236.53558264 94.72949219 238.23657227 C95.00427317 240.85319153 95.27175847 243.47049816 95.5390625 246.08789062 C95.71310277 247.75265011 95.88756547 249.4173655 96.0625 251.08203125 C96.14169678 251.86415482 96.22089355 252.64627838 96.30249023 253.45210266 C96.39703965 257.02890253 96.39703965 257.02890253 98 260 C100.40608745 260.09989006 102.78352635 260.13442174 105.19017029 260.12698364 C106.3324302 260.12932363 106.3324302 260.12932363 107.49776608 260.13171089 C110.06941212 260.13572419 112.64099992 260.13252986 115.21264648 260.12939453 C117.04876236 260.13074853 118.88487796 260.13252845 120.72099304 260.13470459 C125.72558462 260.139282 130.73015569 260.13748735 135.73474765 260.1343255 C140.9698179 260.13180005 146.20488635 260.13414028 151.43995667 260.13571167 C160.24277055 260.13753427 169.04557606 260.13512621 177.84838867 260.13037109 C188.01324369 260.12494349 198.1780786 260.12667981 208.34293312 260.1321975 C217.06915376 260.13674422 225.79536837 260.13737109 234.52158982 260.13475883 C239.73320695 260.13320268 244.94481467 260.13298385 250.1564312 260.13629532 C255.06554535 260.13919612 259.9746338 260.13715787 264.88374519 260.13140106 C266.68077171 260.13008463 268.47780041 260.1304485 270.27482605 260.13266373 C278.90578438 260.14231732 287.42188776 260.09561614 296 259 C295.84966309 260.32638489 295.84966309 260.32638489 295.69628906 261.67956543 C294.75001723 270.03534957 293.80803091 278.3916035 292.87078857 286.74840546 C292.38885829 291.04412739 291.9053051 295.33965336 291.41796875 299.63476562 C290.94724142 303.78403896 290.48087423 307.93378177 290.01745605 312.08387756 C289.8403872 313.66277855 289.66177939 315.24150778 289.48156738 316.8200531 C289.22835817 319.04039981 288.98075552 321.26130845 288.734375 323.48242188 C288.59225586 324.74372925 288.45013672 326.00503662 288.30371094 327.30456543 C287.98066556 331.23525386 287.94875173 335.05838108 288 339 C287.41815948 339.10617142 286.83631897 339.21234283 286.23684692 339.32173157 C279.35817463 340.63087368 272.66626493 342.39374729 265.9296875 344.29296875 C263.62909506 344.92971902 261.32830783 345.56576586 259.02734375 346.20117188 C255.43987449 347.19512086 251.85386988 348.19345886 248.27099609 349.20385742 C244.78583115 350.18461095 241.29589593 351.1464852 237.8046875 352.10546875 C236.7399118 352.41058884 235.67513611 352.71570892 234.57809448 353.03007507 C228.76250442 354.61007454 223.93777279 355.46978536 218 354 C217.08148254 353.77462051 216.16296509 353.54924103 215.21661377 353.31703186 C211.89632161 352.45934212 208.59501444 351.54648494 205.29296875 350.62109375 C204.09062088 350.28956802 202.88827301 349.9580423 201.64949036 349.61647034 C198.47512733 348.74078176 195.30201853 347.86074678 192.12963867 346.97790527 C187.64498346 345.73003798 183.15924845 344.48615309 178.67195129 343.24781799 C176.28700905 342.58949174 173.90309094 341.92744186 171.52030945 341.26133728 C170.44521622 340.96425369 169.37012299 340.6671701 168.26245117 340.36108398 C167.31617355 340.0976268 166.36989594 339.83416962 165.39494324 339.56272888 C162.92328344 338.88563193 162.92328344 338.88563193 160 339 C160.02964844 337.69804687 160.05929688 336.39609375 160.08984375 335.0546875 C160.08862253 328.12551345 159.42277931 321.25773424 158.77319336 314.36621094 C158.5610169 312.10922382 158.35718017 309.85158957 158.15429688 307.59375 C157.47872208 299.73529232 157.47872208 299.73529232 156 292 C137.52 292 119.04 292 100 292 C102.64 321.7 105.28 351.4 108 382 C122.31375 385.980625 136.6275 389.96125 151.375 394.0625 C164.89599609 397.82446289 164.89599609 397.82446289 170.44340515 399.37139893 C174.18873453 400.41291606 177.93863691 401.43604368 181.69148254 402.45013428 C197.74462395 406.80603813 197.74462395 406.80603813 205.4699707 409.68041992 C224.02127169 416.37486379 239.03482561 411.60016614 257.11889648 405.90887451 C260.11639081 404.97628039 263.12604915 404.08883604 266.13911194 403.20805091 C271.45209868 401.65481032 276.76340588 400.09735495 282.05865383 398.4844923 C294.55535231 394.67892326 307.11514683 391.12718392 319.70336914 387.63793945 C321.6872897 387.08640042 323.67115887 386.53467652 325.65497589 385.9827652 C330.43606401 384.65305603 335.21782961 383.32581137 340 382 C343.18902629 346.59359787 346.37430352 311.18686047 349.55455676 275.77966923 C349.93006155 271.59904137 350.30559736 267.41841631 350.68115234 263.23779297 C350.75591771 262.40550993 350.83068308 261.57322689 350.90771407 260.71572316 C352.11820282 247.24147426 353.33120423 233.7674527 354.5451352 220.29351354 C355.7907857 206.46687959 357.03373374 192.64000462 358.27417612 178.81290245 C359.03961064 170.28162725 359.80714964 161.75054677 360.57738602 153.21970373 C361.10544228 147.3688999 361.63087213 141.51786391 362.15424478 135.66663927 C362.45622797 132.29138558 362.75974951 128.91628915 363.0656147 125.54138374 C363.39733268 121.8791936 363.72466335 118.21663668 364.05090332 114.55395508 C364.14817703 113.49168324 364.24545074 112.42941139 364.34567213 111.33494949 C364.43275702 110.34715374 364.51984191 109.35935799 364.60956573 108.34162903 C364.6855098 107.49713101 364.76145387 106.652633 364.83969927 105.78254414 C365.04643804 102.19391571 365 98.59457855 365 95 C271.94 95 178.88 95 83 95 Z " fill="#000000" transform="translate(32,0)"/>
</svg>
