<?xml version="1.0" encoding="UTF-8"?>
<svg version="1.1" xmlns="http://www.w3.org/2000/svg" width="512" height="512">
<path d="M0 0 C0.97055328 0.00215515 1.94110657 0.0043103 2.94107056 0.00653076 C17.26809899 0.05756229 31.29856913 0.40040566 45.375 3.3125 C46.35275391 3.51117676 47.33050781 3.70985352 48.33789062 3.91455078 C108.76176317 16.55810405 166.02319405 49.37088016 203.08496094 99.578125 C204.38958755 101.33211203 205.72620384 103.05738957 207.0703125 104.78125 C247.32281144 157.07429654 263.69957362 226.88582109 255.25 291.9375 C254.71975555 295.4177372 254.07275259 298.86229043 253.375 302.3125 C253.08496094 303.81176025 253.08496094 303.81176025 252.7890625 305.34130859 C246.04750497 339.4496363 233.0995409 371.61690204 213.375 400.3125 C212.64539063 401.3746875 211.91578125 402.436875 211.1640625 403.53125 C204.51066709 412.89333999 197.10314952 421.62647358 189.36328125 430.1015625 C187.7789618 431.86330083 186.28109002 433.64338787 184.8125 435.5 C182.27677957 438.42583127 179.59310067 440.84633456 176.6484375 443.34765625 C174.15821515 445.49985873 171.77499575 447.74775174 169.375 450 C133.72984182 482.36462851 86.83520848 503.34128251 39.375 510.3125 C38.17037109 510.48982666 36.96574219 510.66715332 35.72460938 510.84985352 C24.06732646 512.448825 12.50313902 512.6709053 0.75 512.625 C-0.70483292 512.62226578 -0.70483292 512.62226578 -2.1890564 512.61947632 C-16.54056055 512.57408309 -30.50442918 512.0687347 -44.625 509.3125 C-45.52202637 509.15152832 -46.41905273 508.99055664 -47.34326172 508.82470703 C-94.88797049 500.22153619 -137.8925725 477.74075398 -173.4140625 445.30078125 C-175.17580083 443.7164618 -176.95588787 442.21859002 -178.8125 440.75 C-181.7193172 438.23075843 -184.11549331 435.57207135 -186.59765625 432.64453125 C-188.04405209 430.980758 -189.53678685 429.35680688 -191.05859375 427.76171875 C-233.9081978 382.79762045 -256.13763756 319.52132955 -256 258.0625 C-255.99912384 257.10095001 -255.99824768 256.13940002 -255.99734497 255.14871216 C-255.82887302 198.81204028 -237.44926866 141.4566059 -200.92822266 97.87597656 C-199.66397448 96.3592577 -198.43100239 94.81663827 -197.19921875 93.2734375 C-185.61695326 79.04328239 -172.36499774 65.28129949 -157.625 54.3125 C-156.50495576 53.45215163 -155.38518278 52.59145005 -154.265625 51.73046875 C-144.81169388 44.54842238 -134.89641573 38.25578014 -124.625 32.3125 C-123.94775879 31.91820801 -123.27051758 31.52391602 -122.57275391 31.11767578 C-85.36211859 9.71494343 -42.65422785 -0.1706735 0 0 Z M-126.625 70.3125 C-127.58019531 70.99570313 -128.53539062 71.67890625 -129.51953125 72.3828125 C-147.83278516 85.77572952 -164.9110994 101.30399669 -178.38232422 119.62548828 C-179.60364961 121.28351549 -180.84877916 122.92126498 -182.09765625 124.55859375 C-210.67376605 162.61291819 -225.14139632 209.67985314 -224.9375 257 C-224.93567719 257.88023834 -224.93385437 258.76047668 -224.93197632 259.66738892 C-224.88635791 272.76195144 -224.41282002 285.47462891 -221.625 298.3125 C-221.35163818 299.61840088 -221.35163818 299.61840088 -221.07275391 300.95068359 C-212.76927173 339.99855424 -195.25468596 375.52117254 -168.625 405.3125 C-168.13499512 405.86421875 -167.64499023 406.4159375 -167.14013672 406.984375 C-160.68568814 414.22099237 -154.05222103 421.05575793 -146.625 427.3125 C-145.83947754 427.98249023 -145.83947754 427.98249023 -145.03808594 428.66601562 C-128.61771575 442.58988661 -97.19197696 468.3125 -74.625 468.3125 C-74.625 455.4425 -74.625 442.5725 -74.625 429.3125 C-80.235 429.6425 -85.845 429.9725 -91.625 430.3125 C-110.29369722 428.70312955 -125.45128821 421.75108841 -137.625 407.3125 C-140.04196374 403.98187085 -142.31549982 400.55596606 -144.6003418 397.1340332 C-149.79396245 389.42627991 -156.19200094 380.84629346 -165.83984375 378.85546875 C-167.76009466 378.60236011 -169.69289135 378.44808657 -171.625 378.3125 C-171.60179687 377.65507812 -171.57859375 376.99765625 -171.5546875 376.3203125 C-171.37543864 366.87133708 -172.46052256 357.66990802 -173.625 348.3125 C-159.19462952 348.73943404 -148.35746026 351.8046445 -136.625 360.3125 C-135.93921875 360.80105469 -135.2534375 361.28960937 -134.546875 361.79296875 C-127.53092923 367.34012913 -122.7227912 375.06478875 -117.625 382.3125 C-112.1679515 390.05721949 -106.41201743 397.42736021 -96.625 399.3125 C-85.11792329 400.34889878 -85.11792329 400.34889878 -74.625 396.3125 C-72.98488803 393.30188351 -72.38048676 390.22508639 -71.75 386.875 C-71.38102843 385.16722533 -71.00874476 383.46016217 -70.6328125 381.75390625 C-70.48473145 380.99795166 -70.33665039 380.24199707 -70.18408203 379.46313477 C-69.625 377.3125 -69.625 377.3125 -68.56201172 375.22241211 C-67.40477354 373.21817585 -67.40477354 373.21817585 -67.625 370.3125 C-68.70394531 369.98378906 -69.78289062 369.65507812 -70.89453125 369.31640625 C-91.14441861 362.96363469 -109.34316662 354.06561758 -125.625 340.3125 C-126.44871094 339.63574219 -127.27242188 338.95898438 -128.12109375 338.26171875 C-150.53271351 319.13667038 -163.6325113 288.97896204 -166.01171875 259.95703125 C-168.01983937 230.30265579 -162.00527544 201.87364602 -146.625 176.3125 C-145.50738281 175.05373047 -145.50738281 175.05373047 -144.3671875 173.76953125 C-142.08422044 170.54983106 -142.37987704 169.06596322 -142.875 165.1875 C-144.45263766 148.45796732 -145.49798886 130.56979904 -140.625 114.3125 C-140.3465625 113.37664062 -140.068125 112.44078125 -139.78125 111.4765625 C-137.24722366 104.2021593 -133.29564501 98.22035621 -126.36328125 94.6171875 C-111.09564081 89.28866931 -93.99219831 95.67478735 -80.01953125 102.09375 C-76.66056838 103.72233806 -73.46473375 105.55250357 -70.26171875 107.46875 C-68.87557373 108.29439453 -68.87557373 108.29439453 -67.46142578 109.13671875 C-65.65015265 110.23094325 -63.85204134 111.34734315 -62.06982422 112.48828125 C-56.02524304 116.1678953 -52.46598263 116.86589866 -45.625 115.3125 C-43.73542181 114.9937314 -41.84471314 114.68161614 -39.953125 114.375 C-37.92702482 114.02116824 -35.9009849 113.66699127 -33.875 113.3125 C-25.46332534 111.88618914 -17.16846011 110.55509208 -8.625 110.3125 C-7.98530273 110.29203613 -7.34560547 110.27157227 -6.68652344 110.25048828 C10.590691 109.76454152 27.56628812 111.37024038 44.44848633 115.07910156 C54.04955212 117.11269011 59.15593409 114.57608436 67.375 109.625 C75.52411226 104.85300366 83.47704069 100.55007074 92.375 97.3125 C93.48617188 96.90257813 94.59734375 96.49265625 95.7421875 96.0703125 C105.41726194 92.88916558 118.3325335 90.57744309 128.0625 94.875 C136.93644701 100.61929605 140.74424872 109.87861857 142.95239258 119.94458008 C144.36742599 127.54341598 144.64681135 134.91078723 144.5625 142.625 C144.56113037 143.80763428 144.55976074 144.99026855 144.55834961 146.20874023 C144.52416059 152.51380071 144.19068923 158.61969961 143.4375 164.875 C142.9441663 171.09805231 144.34949982 173.82092892 148.26953125 178.546875 C165.71593487 201.46348681 169.44792585 236.72540138 166.375 264.3125 C163.38517293 285.61451625 155.66266715 306.23643413 142.375 323.3125 C141.34246094 324.66601562 141.34246094 324.66601562 140.2890625 326.046875 C124.44002376 346.17793474 101.61510771 359.66754295 77.375 367.3125 C75.58271361 367.91482575 73.79096049 368.51874319 72 369.125 C70.80375 369.516875 69.6075 369.90875 68.375 370.3125 C69.08194218 374.25959386 70.16118523 377.9925535 71.375 381.8125 C73.42897335 388.27647494 74.52316482 393.97875899 74.58032227 400.76489258 C74.59022186 401.4971405 74.60012146 402.22938843 74.61032104 402.98382568 C74.64177625 405.39152857 74.66662989 407.79925116 74.69140625 410.20703125 C74.7119896 411.88140867 74.73298643 413.55578105 74.75437927 415.23014832 C74.80945738 419.62771516 74.85892929 424.02532779 74.90722656 428.42297363 C74.95754599 432.91418512 75.01317745 437.40533047 75.06835938 441.89648438 C75.17576641 450.70176693 75.27724982 459.50710497 75.375 468.3125 C76.79882341 467.84366757 78.22214735 467.37331815 79.64526367 466.90234375 C80.43793137 466.6405835 81.23059906 466.37882324 82.04728699 466.10913086 C116.0392217 454.47581352 149.80726344 430.3242081 172.375 402.3125 C173.25979526 401.26249688 174.1452805 400.213075 175.03125 399.1640625 C183.1147185 389.4673525 189.96793908 379.18092631 196.375 368.3125 C196.78347168 367.61962891 197.19194336 366.92675781 197.61279297 366.21289062 C212.05305421 341.29208758 220.42898217 313.72950609 224.375 285.3125 C224.54628418 284.08885742 224.71756836 282.86521484 224.89404297 281.60449219 C225.42517755 277.30790716 225.56942066 273.05647422 225.61328125 268.73046875 C225.62804001 267.52540176 225.62804001 267.52540176 225.64309692 266.29598999 C226.0486029 224.50776969 218.23728471 186.37571895 198.375 149.3125 C198.05563477 148.71244141 197.73626953 148.11238281 197.40722656 147.49414062 C169.12893987 94.84198042 118.55671778 56.34585602 61.90625 38.91015625 C-0.71579219 20.59686953 -73.64719669 31.79725029 -126.625 70.3125 Z M-111.625 123.3125 C-113.88503335 129.65139833 -113.96910218 135.62287098 -113.9375 142.3125 C-113.93665405 143.97829102 -113.93665405 143.97829102 -113.93579102 145.67773438 C-113.8517734 153.22064912 -112.95826389 159.95249328 -111.25390625 167.296875 C-109.78634524 174.33387561 -110.96639439 178.63713968 -114.75 184.6875 C-116.02864448 186.57140447 -117.32053077 188.4463843 -118.625 190.3125 C-134.54876531 213.82704327 -139.15988525 240.53821945 -134.625 268.3125 C-129.74558353 291.76626044 -115.15732312 312.23015659 -95.4375 325.625 C-71.34781294 341.19231875 -43.45103932 345.23211435 -15.625 349.3125 C-23.04636335 361.01471977 -23.04636335 361.01471977 -26.5 366.1875 C-27.16257812 367.18394531 -27.82515625 368.18039062 -28.5078125 369.20703125 C-29.97477406 371.35875531 -31.45727305 373.47292212 -32.9921875 375.57421875 C-44.30818665 391.15735985 -44.7896005 404.96057071 -44.72265625 423.69921875 C-44.72078684 425.25291396 -44.71936541 426.80660977 -44.71836853 428.36030579 C-44.71458452 432.41260459 -44.70479032 436.46486647 -44.69366455 440.51715088 C-44.68336101 444.6670278 -44.67885191 448.8169108 -44.67382812 452.96679688 C-44.66316357 461.08204802 -44.64613778 469.1972694 -44.625 477.3125 C-33.46449769 479.65047084 -22.72355088 481.45356813 -11.296875 481.515625 C-10.43302689 481.52245804 -9.56917877 481.52929108 -8.67915344 481.53633118 C-5.91106202 481.55328549 -3.14314022 481.5596498 -0.375 481.5625 C0.5640921 481.56450409 1.5031842 481.56650818 2.47073364 481.568573 C24.20865461 481.72913284 24.20865461 481.72913284 45.375 477.3125 C45.39827795 468.37561571 45.41599329 459.43874203 45.42681217 450.50183392 C45.43200742 446.35106515 45.43904333 442.20031729 45.45043945 438.04956055 C45.46138862 434.03600169 45.46730206 430.02246281 45.46987724 426.00889015 C45.47170999 424.48567198 45.47528836 422.96245478 45.48073006 421.43924522 C45.55660114 399.30020937 41.92564915 386.76252714 29.10742188 368.75341797 C26.38906611 364.92335583 23.72578492 361.05595115 21.0625 357.1875 C20.58868896 356.5066333 20.11487793 355.8257666 19.62670898 355.12426758 C16.375 350.42559381 16.375 350.42559381 16.375 349.3125 C17.86942627 349.0791394 17.86942627 349.0791394 19.39404297 348.84106445 C53.48320882 343.48587399 84.47179678 338.13264246 110.375 313.3125 C111.01179687 312.72726562 111.64859375 312.14203125 112.3046875 311.5390625 C130.04509437 294.74481066 136.24907014 271.70202717 137.3203125 248.08349609 C137.76408653 225.59762465 129.61122299 204.1138888 116.625 186.0625 C111.55393398 178.83735284 110.97102436 173.87222245 112.375 165.3125 C112.53516602 164.61600342 112.69533203 163.91950684 112.86035156 163.2019043 C114.41592905 156.29294187 114.6757509 149.69206348 114.625 142.625 C114.63273438 141.53638672 114.64046875 140.44777344 114.6484375 139.32617188 C114.63451186 133.5992527 114.32212368 128.7134502 112.375 123.3125 C103.76453714 125.07495856 96.51347162 127.86350972 88.8125 132.0625 C87.31033936 132.86276611 87.31033936 132.86276611 85.77783203 133.67919922 C79.83255923 136.87736604 74.03076291 140.18687425 68.4609375 144.0078125 C61.31025404 148.48033736 54.11372741 148.03686207 46.0703125 146.2890625 C44.21193092 145.84523276 42.35519517 145.39446588 40.5 144.9375 C12.76220239 138.52643709 -14.69042077 139.17830202 -42.36669922 145.63549805 C-56.78974618 148.92261679 -64.8594152 146.2949934 -77.1875 138.5625 C-88.01135858 131.93385009 -98.90290108 125.32125246 -111.625 123.3125 Z " fill="#000000" transform="translate(255.625,-0.3125)"/>
</svg>
