<?xml version="1.0" encoding="UTF-8"?>
<svg version="1.1" xmlns="http://www.w3.org/2000/svg" width="512" height="512">
<path d="M0 0 C168.96 0 337.92 0 512 0 C512 168.96 512 337.92 512 512 C343.04 512 174.08 512 0 512 C0 343.04 0 174.08 0 0 Z " fill="#000000" transform="translate(0,0)"/>
<path d="M0 0 C0.75684082 0.01401855 1.51368164 0.02803711 2.29345703 0.04248047 C48.91019245 1.15104221 93.05549792 25.49177049 126 57 C126.67804688 57.63679688 127.35609375 58.27359375 128.0546875 58.9296875 C152.0224639 82.01385924 167.98183205 113.35568688 177 145 C177.30550781 146.00546875 177.61101562 147.0109375 177.92578125 148.046875 C187.75815431 182.93919374 185.7991649 225.21557258 173 259 C172.72317383 259.75474609 172.44634766 260.50949219 172.16113281 261.28710938 C162.34329382 287.88549262 148.08651026 311.1623259 128.8125 331.9375 C128.25481934 332.53989502 127.69713867 333.14229004 127.12255859 333.76293945 C108.67296242 353.30782828 85.51496911 367.39805494 61 378 C59.948125 378.45503906 58.89625 378.91007812 57.8125 379.37890625 C52.5810209 381.46423195 46.61312287 383.70511846 41 382 C37.86558471 379.42875468 36.18606065 377.93235324 35.38095093 373.89793396 C35.38333771 372.73721878 35.38572449 371.5765036 35.38818359 370.38061523 C35.38251877 369.73591782 35.37685394 369.0912204 35.37101746 368.42698669 C35.35755766 366.30359005 35.37844187 364.18191506 35.3984375 362.05859375 C35.39293067 360.5698989 35.38480006 359.08121168 35.37417603 357.59254456 C35.35130199 353.67282844 35.3554961 349.75366991 35.36798096 345.83392334 C35.38627931 339.5865488 35.37598695 333.33950845 35.34212112 327.09221077 C35.33609464 324.92753776 35.34918522 322.76359902 35.36410522 320.59898376 C35.37790022 305.14242374 31.48032893 294.63947115 23 282 C23.72364746 281.88519287 24.44729492 281.77038574 25.19287109 281.65209961 C51.31372355 277.41455127 77.56604417 270.95591908 94.5078125 248.84765625 C110.27456413 226.71129424 113.80599468 196.99077241 110.71582031 170.5703125 C108.59033552 158.30746187 102.49482829 146.21601288 94.3828125 136.8671875 C92.88816798 134.84899518 92.32063981 133.47994852 92 131 C92.62627128 128.98698517 93.29835358 126.98799818 94 125 C96.55896096 110.11477639 94.91003483 96.21775304 90 82 C71.8711045 80.80468821 54.16500243 88.57151778 39.8125 99.40625 C36.0056258 101.56347871 34.22430683 100.99007191 30 100 C15.3056572 96.80457402 1.18792143 95.58715044 -13.8125 95.5625 C-15.02715942 95.55378372 -15.02715942 95.55378372 -16.26635742 95.54489136 C-30.23846215 95.47575228 -44.37715129 96.42167866 -57.75 100.75 C-64.82255215 102.10757967 -70.55327211 96.91339042 -76.15087891 93.18212891 C-87.90636402 85.6669376 -102.02865121 80.97353356 -116 82 C-121.43328572 98.35039935 -123.25132214 114.44891068 -118 131.1875 C-118 135.05005684 -119.61321947 136.1826671 -122.18359375 138.9140625 C-137.07624366 156.01658949 -137.9813775 178.51873701 -137 200 C-135.20729136 222.40452775 -127.17976276 244.87903526 -110 260 C-92.38493328 273.86231424 -70.9707961 279.79963627 -49 282 C-49.47050781 282.71285156 -49.94101563 283.42570312 -50.42578125 284.16015625 C-56.29624214 292.60500506 -56.29624214 292.60500506 -59.23046875 302.28515625 C-59.5188145 304.85519447 -59.80225676 306.69801764 -61 309 C-64.48440262 311.07472587 -68.06816497 312.08637858 -72 313 C-72.80566406 313.18949219 -73.61132812 313.37898438 -74.44140625 313.57421875 C-86.38086398 315.56109034 -96.95670179 313.85926787 -106.875 306.875 C-111.64615438 302.86753277 -114.92387798 298.08306731 -118.4375 293 C-125.19880471 283.2265172 -132.74596055 275.24022659 -145 273 C-148.89811433 272.64500535 -152.24591095 272.74863698 -156 274 C-155.92123593 276.67797838 -155.52195464 278.44769916 -153.65625 280.421875 C-151.80141922 281.99005012 -149.91129247 283.50116371 -148 285 C-139.28774687 292.07550891 -133.66904484 299.1978068 -129.125 309.4375 C-124.55705022 319.65095581 -118.34018757 328.10005526 -108 333 C-107.23300781 333.39058594 -106.46601563 333.78117187 -105.67578125 334.18359375 C-92.36504659 339.79936356 -76.01382816 337.48638045 -62 336 C-61.92581664 341.76575914 -61.87138203 347.53124017 -61.83520508 353.29736328 C-61.82012305 355.25867553 -61.79965453 357.21995408 -61.77368164 359.18115234 C-61.73727269 362.00106118 -61.72026784 364.82052392 -61.70703125 367.640625 C-61.69154739 368.51680481 -61.67606354 369.39298462 -61.66011047 370.29571533 C-61.65843788 376.35259221 -61.65843788 376.35259221 -63.33081055 379.52246094 C-66.646882 382.45779287 -70.35367636 382.29714016 -74.55175781 382.24121094 C-78.66858018 381.83560459 -82.13454312 380.32028635 -85.875 378.625 C-87.0966687 378.08806519 -87.0966687 378.08806519 -88.34301758 377.5402832 C-108.20350917 368.65557725 -126.18580676 357.83508499 -142.46630859 343.36181641 C-143.9841462 342.01407712 -145.51670915 340.68466958 -147.05078125 339.35546875 C-154.80651487 332.54476149 -161.59587294 325.08798888 -168 317 C-168.48436523 316.3901123 -168.96873047 315.78022461 -169.46777344 315.15185547 C-201.5659954 273.99451608 -213.5246486 221.8463342 -208.22363281 170.5534668 C-202.14104953 121.64148935 -175.73664957 73.69389491 -136.875 43.1875 C-134.59909439 41.43668534 -132.30469555 39.7126702 -130 38 C-129.17113281 37.37609375 -128.34226562 36.7521875 -127.48828125 36.109375 C-89.35463157 8.39935452 -46.42972052 -1.00951455 0 0 Z " fill="#FDFDFD" transform="translate(269,65)"/>
<path d="M0 0 C0.78375 0.04125 1.5675 0.0825 2.375 0.125 C3 2 3 2 3.375 4.125 C1.375 6.125 1.375 6.125 -1.25 6.25 C-2.03375 6.20875 -2.8175 6.1675 -3.625 6.125 C-4.25 4.25 -4.25 4.25 -4.625 2.125 C-2.625 0.125 -2.625 0.125 0 0 Z " fill="#EAEAEA" transform="translate(202.625,379.875)"/>
<path d="M0 0 C0 1.32 0 2.64 0 4 C-4.75 5.125 -4.75 5.125 -7 4 C-7 2.68 -7 1.36 -7 0 C-4.3333581 -1.33332095 -2.83319697 -0.67102033 0 0 Z " fill="#EDEDED" transform="translate(190,383)"/>
<path d="M0 0 C4.75 0.75 4.75 0.75 7 3 C6.625 5.125 6.625 5.125 6 7 C1.125 6.125 1.125 6.125 0 5 C-0.04063832 3.33382885 -0.042721 1.66611905 0 0 Z " fill="#EFEFEF" transform="translate(154,371)"/>
<path d="M0 0 C5.75 -0.125 5.75 -0.125 8 1 C8 2.32 8 3.64 8 5 C5.125 5.125 5.125 5.125 2 5 C1.34 4.34 0.68 3.68 0 3 C0 2.01 0 1.02 0 0 Z " fill="#F3F3F3" transform="translate(167,380)"/>
<path d="M0 0 C2.475 0.495 2.475 0.495 5 1 C5.33 2.65 5.66 4.3 6 6 C4.125 6.625 4.125 6.625 2 7 C0 5 0 5 -0.125 2.375 C-0.08375 1.59125 -0.0425 0.8075 0 0 Z " fill="#E1E1E1" transform="translate(145,360)"/>
<path d="M0 0 C2.475 0.495 2.475 0.495 5 1 C5.33 2.32 5.66 3.64 6 5 C5.01 5.33 4.02 5.66 3 6 C1.5 4.6875 1.5 4.6875 0 3 C0 2.01 0 1.02 0 0 Z " fill="#DADADA" transform="translate(137,350)"/>
<path d="M0 0 C2.475 0.495 2.475 0.495 5 1 C5 1.99 5 2.98 5 4 C3.35 3.67 1.7 3.34 0 3 C0 2.01 0 1.02 0 0 Z " fill="#E4E4E4" transform="translate(129,343)"/>
</svg>
