<?xml version="1.0" encoding="UTF-8"?>
<!DOCTYPE svg PUBLIC "-//W3C//DTD SVG 1.1//EN" "http://www.w3.org/Graphics/SVG/1.1/DTD/svg11.dtd">
<svg xmlns="http://www.w3.org/2000/svg" version="1.1" width="512px" height="512px" style="shape-rendering:geometricPrecision; text-rendering:geometricPrecision; image-rendering:optimizeQuality; fill-rule:evenodd; clip-rule:evenodd" xmlns:xlink="http://www.w3.org/1999/xlink">
<g><path style="opacity:0.948" fill="#000002" d="M 304.5,-0.5 C 305.167,-0.5 305.833,-0.5 306.5,-0.5C 325.427,31.8382 323.594,62.8382 301,92.5C 283.742,110.427 265.242,126.927 245.5,142C 239.38,147.153 233.547,152.653 228,158.5C 221.697,165.233 218.197,173.233 217.5,182.5C 220.892,214.84 230.225,245.34 245.5,274C 245.167,274.167 244.833,274.333 244.5,274.5C 221.198,256.875 203.365,234.875 191,208.5C 182.487,187.43 184.487,167.43 197,148.5C 205.712,135.451 216.212,123.951 228.5,114C 244.5,102.333 260.5,90.6667 276.5,79C 290.181,67.9596 299.014,53.7929 303,36.5C 305.598,24.2401 306.098,11.9068 304.5,-0.5 Z"/></g>
<g><path style="opacity:0.943" fill="#000002" d="M 350.5,106.5 C 351.239,106.369 351.906,106.536 352.5,107C 333.812,121.014 316.312,136.514 300,153.5C 291.842,161.65 287.009,171.483 285.5,183C 285.762,185.547 286.262,188.047 287,190.5C 293.634,202.48 300.3,214.48 307,226.5C 312.761,241.707 311.094,256.04 302,269.5C 295.353,278.647 287.52,286.647 278.5,293.5C 279.734,287.265 281.567,280.932 284,274.5C 286.484,266.529 285.817,258.863 282,251.5C 271.598,240.415 263.598,227.748 258,213.5C 250.232,194.888 252.232,177.554 264,161.5C 277.928,146.294 294.095,134.127 312.5,125C 325.136,118.514 337.802,112.348 350.5,106.5 Z"/></g>
<g><path style="opacity:0.928" fill="#000002" d="M 396.5,273.5 C 423.045,270.012 438.879,281.346 444,307.5C 445.61,318.453 443.277,328.453 437,337.5C 425.3,350.606 411.133,360.106 394.5,366C 384.995,369.668 375.328,372.835 365.5,375.5C 364.289,374.726 364.289,373.893 365.5,373C 384.538,360.964 400.705,345.797 414,327.5C 423.301,306.599 416.801,293.099 394.5,287C 386.951,285.017 379.284,283.683 371.5,283C 379.508,278.757 387.841,275.591 396.5,273.5 Z"/></g>
<g><path style="opacity:0.933" fill="#000002" d="M 170.5,280.5 C 177.508,280.334 184.508,280.5 191.5,281C 175.536,283.765 160.536,289.098 146.5,297C 143.193,301.679 144.526,304.345 150.5,305C 156.746,306.541 163.079,307.541 169.5,308C 232.591,312.479 295.258,309.479 357.5,299C 344.341,308.078 330.007,314.745 314.5,319C 279.749,327.954 244.415,332.121 208.5,331.5C 181.424,331.584 154.757,328.418 128.5,322C 120.723,319.702 114.223,315.536 109,309.5C 106.926,305.088 107.093,300.754 109.5,296.5C 117.326,290.053 126.326,286.22 136.5,285C 147.947,283.231 159.281,281.731 170.5,280.5 Z"/></g>
<g><path style="opacity:0.937" fill="#000002" d="M 169.5,340.5 C 170.552,340.351 171.552,340.517 172.5,341C 169.734,342.467 167.234,344.3 165,346.5C 164.333,348.5 164.333,350.5 165,352.5C 170.396,355.642 176.229,357.475 182.5,358C 228.65,363.182 274.316,360.349 319.5,349.5C 327.753,353.299 335.42,358.133 342.5,364C 304.038,374.019 264.871,379.852 225,381.5C 203.406,381.072 182.239,377.905 161.5,372C 155.271,369.636 149.771,366.136 145,361.5C 143.328,357.797 143.828,354.297 146.5,351C 153.729,346.383 161.396,342.883 169.5,340.5 Z"/></g>
<g><path style="opacity:0.948" fill="#000002" d="M 177.5,395.5 C 180.187,395.336 182.854,395.503 185.5,396C 181.167,399.604 181.501,402.604 186.5,405C 226.594,414.023 266.594,413.523 306.5,403.5C 316.164,408.663 325.497,414.33 334.5,420.5C 301.788,433.674 267.788,439.174 232.5,437C 212.387,436.175 192.721,432.842 173.5,427C 168.093,424.584 163.593,421.084 160,416.5C 157.37,410.439 158.536,405.273 163.5,401C 168.017,398.445 172.684,396.612 177.5,395.5 Z"/></g>
<g><path style="opacity:0.928" fill="#000002" d="M 139.5,431.5 C 140.552,431.351 141.552,431.517 142.5,432C 133.982,434.631 125.315,436.964 116.5,439C 111.387,440.723 106.387,442.723 101.5,445C 99.6487,446.684 97.982,448.517 96.5,450.5C 100.399,454.285 105.066,456.785 110.5,458C 139.498,464.291 168.831,467.958 198.5,469C 261.798,472.24 324.465,467.24 386.5,454C 392.986,452.462 399.319,450.462 405.5,448C 412.404,445.358 414.738,440.858 412.5,434.5C 420.614,441.145 420.947,447.978 413.5,455C 402.253,461.751 390.253,466.751 377.5,470C 335.77,480.008 293.437,485.341 250.5,486C 206.72,487.152 163.053,485.485 119.5,481C 103.626,479.616 88.6256,475.282 74.5,468C 67.142,463.259 64.9753,456.759 68,448.5C 71.2356,445.129 75.0689,442.629 79.5,441C 99.2946,435.697 119.295,432.53 139.5,431.5 Z"/></g>
<g><path style="opacity:0.899" fill="#000002" d="M 308.5,511.5 C 285.167,511.5 261.833,511.5 238.5,511.5C 205.707,509.502 173.04,505.335 140.5,499C 176.832,499.13 213.165,499.63 249.5,500.5C 283.568,500.406 317.568,498.906 351.5,496C 377.504,492.554 402.171,484.887 425.5,473C 430.422,469.622 435.255,466.122 440,462.5C 438.653,470.346 434.82,476.846 428.5,482C 413.773,493.357 397.106,500.357 378.5,503C 355.119,506.689 331.786,509.522 308.5,511.5 Z"/></g>
</svg>
