<?xml version="1.0" encoding="UTF-8"?>
<!DOCTYPE svg PUBLIC "-//W3C//DTD SVG 1.1//EN" "http://www.w3.org/Graphics/SVG/1.1/DTD/svg11.dtd">
<svg xmlns="http://www.w3.org/2000/svg" version="1.1" width="512px" height="512px" style="shape-rendering:geometricPrecision; text-rendering:geometricPrecision; image-rendering:optimizeQuality; fill-rule:evenodd; clip-rule:evenodd" xmlns:xlink="http://www.w3.org/1999/xlink">
<g><path style="opacity:0.991" fill="#000000" d="M 343.5,30.5 C 345.179,30.8923 346.846,31.3923 348.5,32C 370.667,54.1667 392.833,76.3333 415,98.5C 415.5,150.832 415.667,203.166 415.5,255.5C 425.506,255.334 435.506,255.5 445.5,256C 450,257.833 453.167,261 455,265.5C 455.99,314.916 455.657,364.25 454,413.5C 441.333,426.167 428.667,438.833 416,451.5C 418.172,463.349 414.339,472.515 404.5,479C 401.899,479.92 399.232,480.587 396.5,481C 302.5,481.667 208.5,481.667 114.5,481C 106.556,480.391 100.723,476.558 97,469.5C 95.8044,463.581 95.1378,457.581 95,451.5C 82,438.5 69,425.5 56,412.5C 55.3333,363.5 55.3333,314.5 56,265.5C 57.8333,261 61,257.833 65.5,256C 75.4944,255.5 85.4944,255.334 95.5,255.5C 95.3333,185.499 95.5,115.499 96,45.5C 98.5,39 103,34.5 109.5,32C 187.668,31.833 265.668,31.333 343.5,30.5 Z M 116.5,47.5 C 189.5,47.5 262.5,47.5 335.5,47.5C 335.023,68.2585 335.523,88.9252 337,109.5C 337.75,110.126 338.584,110.626 339.5,111C 359.497,111.5 379.497,111.667 399.5,111.5C 399.5,159.5 399.5,207.5 399.5,255.5C 303.5,255.5 207.5,255.5 111.5,255.5C 111.333,187.833 111.5,120.166 112,52.5C 112.348,49.6576 113.848,47.991 116.5,47.5 Z M 351.5,60.5 C 363.298,71.798 374.965,83.298 386.5,95C 374.838,95.4999 363.171,95.6665 351.5,95.5C 351.5,83.8333 351.5,72.1667 351.5,60.5 Z M 111.5,415.5 C 207.5,415.5 303.5,415.5 399.5,415.5C 399.667,430.17 399.5,444.837 399,459.5C 398.727,461.329 397.893,462.829 396.5,464C 302.5,464.667 208.5,464.667 114.5,464C 113.107,462.829 112.273,461.329 112,459.5C 111.5,444.837 111.333,430.17 111.5,415.5 Z"/></g>
<g><path style="opacity:0.927" fill="#000000" d="M 194.5,114.5 C 198.182,114.335 201.848,114.501 205.5,115C 208.859,116.135 210.192,118.468 209.5,122C 209.333,123.5 209.167,125 209,126.5C 205.509,128.355 202.176,130.355 199,132.5C 198.112,140.815 197.446,149.149 197,157.5C 195.568,162.861 192.734,167.361 188.5,171C 191.762,173.592 194.262,176.759 196,180.5C 196.937,190.192 197.937,199.859 199,209.5C 202.559,211.13 205.892,213.13 209,215.5C 211.043,222.956 208.21,226.956 200.5,227.5C 191.643,227.133 185.81,222.799 183,214.5C 182.824,204.791 182.158,195.124 181,185.5C 177.806,181.395 174.14,177.728 170,174.5C 169.21,171.366 169.543,168.366 171,165.5C 175.086,162.816 178.419,159.482 181,155.5C 181.944,144.809 182.944,134.142 184,123.5C 186.468,119.199 189.968,116.199 194.5,114.5 Z"/></g>
<g><path style="opacity:0.926" fill="#000000" d="M 305.5,114.5 C 314.613,113.141 321.779,116.141 327,123.5C 328.056,134.142 329.056,144.809 330,155.5C 332.193,159.938 335.527,163.272 340,165.5C 343.225,172.316 341.392,177.149 334.5,180C 332.383,181.731 330.883,183.898 330,186.5C 328.842,196.124 328.176,205.791 328,215.5C 325.037,223.573 319.204,227.573 310.5,227.5C 302.091,227.579 299.258,223.579 302,215.5C 305.219,213.355 308.552,211.355 312,209.5C 312.354,200.808 313.021,192.141 314,183.5C 315.239,178.259 318.072,174.092 322.5,171C 318.884,168.258 316.384,164.758 315,160.5C 314,151.167 313,141.833 312,132.5C 308.606,130.645 305.273,128.645 302,126.5C 301.333,123.5 301.333,120.5 302,117.5C 303.145,116.364 304.312,115.364 305.5,114.5 Z"/></g>
<g><path style="opacity:0.89" fill="#000000" d="M 220.5,182.5 C 224.846,182.334 229.179,182.501 233.5,183C 234,183.5 234.5,184 235,184.5C 238.833,198 234,202.833 220.5,199C 220,198.5 219.5,198 219,197.5C 217.955,192.215 218.455,187.215 220.5,182.5 Z"/></g>
<g><path style="opacity:0.856" fill="#000000" d="M 248.5,182.5 C 253.43,182.197 258.263,182.531 263,183.5C 267.485,198.841 262.318,203.508 247.5,197.5C 245.971,192.331 246.304,187.331 248.5,182.5 Z"/></g>
<g><path style="opacity:0.882" fill="#000000" d="M 277.5,182.5 C 281.846,182.334 286.179,182.501 290.5,183C 291,183.5 291.5,184 292,184.5C 295.833,198 291,202.833 277.5,199C 277,198.5 276.5,198 276,197.5C 274.955,192.215 275.455,187.215 277.5,182.5 Z"/></g>
<g><path style="opacity:1" fill="#f9f9f9" d="M 185.5,350.5 C 190.396,348.554 195.729,347.887 201.5,348.5C 203.213,354.528 207.213,356.695 213.5,355C 217.919,350.181 217.252,346.181 211.5,343C 204.922,340.918 198.589,338.252 192.5,335C 184.461,328.338 182.628,320.171 187,310.5C 189.989,306.509 193.822,303.676 198.5,302C 205.567,301.161 212.567,301.494 219.5,303C 227.1,306.43 231.433,312.263 232.5,320.5C 226.833,320.5 221.167,320.5 215.5,320.5C 215.511,315.845 213.178,313.511 208.5,313.5C 202.287,315.014 200.953,318.514 204.5,324C 211.384,327.275 218.384,330.275 225.5,333C 235.201,340.121 237.035,348.954 231,359.5C 223.784,367.182 214.951,370.016 204.5,368C 194.259,366.242 187.925,360.408 185.5,350.5 Z"/></g>
<g><path style="opacity:1" fill="#fafafa" d="M 265.5,301.5 C 293.283,299.121 307.116,311.788 307,339.5C 302.866,359.963 290.366,369.463 269.5,368C 248.42,362.226 239.253,348.392 242,326.5C 245.589,314.08 253.423,305.747 265.5,301.5 Z"/></g>
<g><path style="opacity:1" fill="#fbfbfb" d="M 161.5,302.5 C 166.5,302.5 171.5,302.5 176.5,302.5C 176.5,318.833 176.5,335.167 176.5,351.5C 175.475,360.029 170.809,365.529 162.5,368C 147.916,370.632 138.083,365.132 133,351.5C 132.503,349.19 132.337,346.857 132.5,344.5C 137.833,344.5 143.167,344.5 148.5,344.5C 148.043,351.88 151.376,354.713 158.5,353C 159.701,352.097 160.535,350.931 161,349.5C 161.5,333.837 161.667,318.17 161.5,302.5 Z"/></g>
<g><path style="opacity:1" fill="#818181" d="M 161.5,302.5 C 166.64,301.512 171.974,301.179 177.5,301.5C 177.83,318.342 177.497,335.008 176.5,351.5C 176.5,335.167 176.5,318.833 176.5,302.5C 171.5,302.5 166.5,302.5 161.5,302.5 Z"/></g>
<g><path style="opacity:1" fill="#a3a3a3" d="M 331.5,302.5 C 326.5,302.5 321.5,302.5 316.5,302.5C 316.5,324.167 316.5,345.833 316.5,367.5C 315.503,345.673 315.169,323.673 315.5,301.5C 321.026,301.179 326.36,301.512 331.5,302.5 Z"/></g>
<g><path style="opacity:1" fill="#fdfdfd" d="M 331.5,302.5 C 340.081,314.661 348.414,326.994 356.5,339.5C 356.783,340.289 357.283,340.956 358,341.5C 358.5,328.504 358.667,315.504 358.5,302.5C 363.5,302.5 368.5,302.5 373.5,302.5C 373.5,324.167 373.5,345.833 373.5,367.5C 368.125,367.828 362.792,367.495 357.5,366.5C 349.248,353.661 340.748,340.994 332,328.5C 331.5,341.496 331.333,354.496 331.5,367.5C 326.5,367.5 321.5,367.5 316.5,367.5C 316.5,345.833 316.5,324.167 316.5,302.5C 321.5,302.5 326.5,302.5 331.5,302.5 Z"/></g>
<g><path style="opacity:1" fill="#323232" d="M 358.5,302.5 C 358.667,315.504 358.5,328.504 358,341.5C 357.283,340.956 356.783,340.289 356.5,339.5C 357.167,327.167 357.833,314.833 358.5,302.5 Z"/></g>
<g><path style="opacity:1" fill="#bdbdbd" d="M 358.5,302.5 C 363.64,301.512 368.974,301.179 374.5,301.5C 374.831,323.673 374.497,345.673 373.5,367.5C 373.5,345.833 373.5,324.167 373.5,302.5C 368.5,302.5 363.5,302.5 358.5,302.5 Z"/></g>
<g><path style="opacity:1" fill="#060606" d="M 270.5,315.5 C 285.618,315.784 292.451,323.451 291,338.5C 288.155,349.676 280.989,354.51 269.5,353C 259.678,347.849 255.845,339.682 258,328.5C 259.333,325.833 260.667,323.167 262,320.5C 264.682,318.415 267.516,316.748 270.5,315.5 Z"/></g>
<g><path style="opacity:1" fill="#a0a0a0" d="M 201.5,348.5 C 195.729,347.887 190.396,348.554 185.5,350.5C 184.596,349.791 184.263,348.791 184.5,347.5C 190.358,347.178 196.025,347.511 201.5,348.5 Z"/></g>
</svg>
