<?xml version="1.0" encoding="UTF-8"?>
<svg version="1.1" xmlns="http://www.w3.org/2000/svg" width="512" height="512">
<path d="M0 0 C1.77374582 -0.00417672 3.54748897 -0.00965609 5.32122719 -0.01631981 C10.17819664 -0.03074876 15.03499603 -0.02653765 19.89197469 -0.019153 C25.13681068 -0.01441732 30.3816101 -0.02693473 35.62643433 -0.03717041 C45.89485013 -0.05435591 56.16320474 -0.05519892 66.43163119 -0.04995751 C74.77893196 -0.0459141 83.12621465 -0.0473614 91.47351456 -0.05270576 C93.2563932 -0.0538284 93.2563932 -0.0538284 95.07528958 -0.05497371 C97.48999547 -0.05650521 99.90470136 -0.05804355 102.31940724 -0.05958868 C124.95793772 -0.07331283 147.59643363 -0.06787663 170.23496331 -0.05640347 C190.9385394 -0.04647128 211.64202612 -0.0594117 232.34558843 -0.08333766 C253.61280564 -0.10772952 274.87998123 -0.1173363 296.14721215 -0.11068493 C308.08363006 -0.1071929 320.01997924 -0.10942377 331.95638657 -0.12693596 C342.11758656 -0.14165898 352.27866942 -0.14229198 362.43986712 -0.12486505 C367.62212851 -0.11635358 372.80418066 -0.11420926 377.98643112 -0.1295166 C382.73498219 -0.14336902 387.48314486 -0.13859327 392.23167349 -0.11927737 C393.94489999 -0.11551877 395.65815763 -0.11843524 397.37135635 -0.12888902 C413.62929003 -0.22100014 426.93739553 3.2944676 439.24124146 14.51268005 C451.63922554 27.80690395 454.00828823 41.40027721 453.94142151 58.8339386 C453.94559823 60.60768442 453.9510776 62.38142757 453.95774132 64.15516579 C453.97217027 69.01213524 453.96795916 73.86893463 453.96057451 78.72591329 C453.95583883 83.97074928 453.96835623 89.2155487 453.97859192 94.46037292 C453.99577742 104.72878873 453.99662043 114.99714334 453.99137902 125.26556979 C453.98733561 133.61287056 453.98878291 141.96015325 453.99412727 150.30745316 C453.9948757 151.49603891 453.99562412 152.68462467 453.99639522 153.90922818 C453.99792672 156.32393407 453.99946506 158.73863996 454.00101019 161.15334584 C454.01473434 183.79187632 454.00929813 206.43037222 453.99782497 229.06890191 C453.98789278 249.772478 454.00083321 270.47596472 454.02475917 291.17952703 C454.04915102 312.44674424 454.05875781 333.71391983 454.05210644 354.98115075 C454.04861441 366.91756866 454.05084528 378.85391784 454.06835747 390.79032516 C454.08308049 400.95152516 454.08371349 411.11260802 454.06628656 421.27380572 C454.05777508 426.45606711 454.05563077 431.63811925 454.07093811 436.82036972 C454.08479053 441.56892079 454.08001478 446.31708346 454.06069887 451.06561209 C454.05694028 452.77883859 454.05985675 454.49209623 454.07031053 456.20529495 C454.16242165 472.46322863 450.64695391 485.77133413 439.42874146 498.07518005 C426.13451756 510.47316413 412.5411443 512.84222683 395.10748291 512.77536011 C393.33373709 512.77953683 391.55999394 512.7850162 389.78625572 512.79167992 C384.92928627 512.80610887 380.07248688 512.80189776 375.21550822 512.79451311 C369.97067223 512.78977743 364.72587281 512.80229483 359.48104858 512.81253052 C349.21263278 512.82971602 338.94427817 512.83055903 328.67585172 512.82531761 C320.32855095 512.82127421 311.98126826 512.8227215 303.63396835 512.82806587 C302.44538259 512.82881429 301.25679683 512.82956272 300.03219333 512.83033382 C297.61748744 512.83186531 295.20278155 512.83340366 292.78807567 512.83494879 C270.14954519 512.84867294 247.51104928 512.84323673 224.8725196 512.83176357 C204.16894351 512.82183138 183.46545679 512.83477181 162.76189448 512.85869776 C141.49467727 512.88308962 120.22750168 512.89269641 98.96027076 512.88604504 C87.02385285 512.88255301 75.08750367 512.88478388 63.15109634 512.90229607 C52.98989635 512.91701909 42.82881349 512.91765209 32.66761579 512.90022516 C27.4853544 512.89171368 22.30330225 512.88956937 17.12105179 512.90487671 C12.37250072 512.91872912 7.62433805 512.91395337 2.87580942 512.89463747 C1.16258292 512.89087888 -0.55067472 512.89379535 -2.26387344 512.90424912 C-18.52180712 512.99636025 -31.82991262 509.48089251 -44.13375854 498.26268005 C-56.53174262 484.96845616 -58.90080532 471.3750829 -58.8339386 453.94142151 C-58.83811532 452.16767569 -58.84359469 450.39393254 -58.85025841 448.62019432 C-58.86468736 443.76322487 -58.86047625 438.90642548 -58.8530916 434.04944682 C-58.84835592 428.80461082 -58.86087332 423.55981141 -58.87110901 418.31498718 C-58.88829451 408.04657138 -58.88913752 397.77821677 -58.8838961 387.50979032 C-58.8798527 379.16248955 -58.8813 370.81520686 -58.88664436 362.46790695 C-58.88739279 361.27932119 -58.88814121 360.09073543 -58.88891231 358.86613192 C-58.89044381 356.45142603 -58.89198215 354.03672015 -58.89352728 351.62201427 C-58.90725143 328.98348379 -58.90181522 306.34498788 -58.89034206 283.7064582 C-58.88040987 263.0028821 -58.8933503 242.29939538 -58.91727626 221.59583308 C-58.94166811 200.32861587 -58.9512749 179.06144028 -58.94462353 157.79420936 C-58.9411315 145.85779145 -58.94336237 133.92144227 -58.96087456 121.98503494 C-58.97559758 111.82383495 -58.97623058 101.66275209 -58.95880365 91.50155438 C-58.95029217 86.319293 -58.94814786 81.13724085 -58.9634552 75.95499039 C-58.97730762 71.20643932 -58.97253187 66.45827665 -58.95321596 61.70974801 C-58.94945737 59.99652152 -58.95237384 58.28326388 -58.96282762 56.57006516 C-59.05493874 40.31213148 -55.539471 27.00402598 -44.32125854 14.70018005 C-31.02703465 2.30219597 -17.43366139 -0.06686672 0 0 Z M21.40921021 86.0478363 C12.47671715 97.31218018 10.19105041 110.45757913 11.55374146 124.38768005 C13.1124031 131.43957085 16.36880174 137.54943082 20.55374146 143.38768005 C21.27561646 144.39830505 21.99749146 145.40893005 22.74124146 146.45018005 C30.50078693 155.32168532 41.34923124 159.99736941 52.86624146 161.32518005 C66.51158962 161.99041106 77.46366778 157.85899769 87.74124146 149.20018005 C97.29464754 140.25498771 101.76537937 129.36431471 102.55374146 116.4384613 C102.55374146 105.56858977 98.94053504 96.09694403 92.55374146 87.38768005 C91.47092896 85.90268005 91.47092896 85.90268005 90.36624146 84.38768005 C83.92184192 76.8823123 74.69156814 73.43362228 65.55374146 70.38768005 C47.92036682 69.21723843 33.9644075 72.99143353 21.40921021 86.0478363 Z M238.55374146 219.38768005 C237.70682739 220.01932068 236.85991333 220.6509613 235.98733521 221.30174255 C233.22391825 223.67038566 231.06867583 226.22881118 228.80374146 229.07518005 C224.55374146 234.38768005 224.55374146 234.38768005 223.55374146 235.38768005 C223.22374146 225.48768005 222.89374146 215.58768005 222.55374146 205.38768005 C197.47374146 205.38768005 172.39374146 205.38768005 146.55374146 205.38768005 C146.55374146 281.28768005 146.55374146 357.18768005 146.55374146 435.38768005 C171.63374146 435.38768005 196.71374146 435.38768005 222.55374146 435.38768005 C222.59112427 425.4928363 222.62850708 415.59799255 222.66702271 405.40330505 C222.69730946 399.12334329 222.72834136 392.84339975 222.76272583 386.5634613 C222.81712769 376.60237813 222.86854425 366.64134551 222.900177 356.68016052 C222.92323328 349.42413465 222.95671568 342.16824245 223.00244302 334.91232276 C223.02627295 331.07442005 223.04506842 327.23664888 223.05135536 323.39867401 C223.05745296 319.7772199 223.07761856 316.15610193 223.10801697 312.53477287 C223.12083599 310.59050295 223.11924012 308.64615418 223.11701965 306.70184326 C223.26134369 293.04931063 225.97294051 283.00755483 234.92874146 272.63768005 C244.77517357 264.1978811 254.72802348 261.16470189 267.57473755 262.12449646 C272.67974154 262.80340027 277.09215726 264.92422866 281.55374146 267.38768005 C282.22921021 267.74861755 282.90467896 268.10955505 283.60061646 268.48143005 C291.33373963 273.27186034 296.00608766 281.89550075 298.55374146 290.38768005 C299.34624277 294.43128474 299.68590177 298.26900946 299.71195984 302.38618469 C299.72664307 304.15290779 299.72664307 304.15290779 299.74162292 305.95532227 C299.74737839 307.23350327 299.75313385 308.51168427 299.75906372 309.82859802 C299.76865207 311.19892669 299.77866271 312.56925245 299.7890625 313.9395752 C299.81601399 317.64776071 299.83707613 321.35595882 299.85706449 325.06418753 C299.87898448 328.94394296 299.90634366 332.82365999 299.93312073 336.7033844 C299.9829665 344.04489355 300.02793532 351.38642412 300.07114309 358.72797501 C300.1298345 368.65236366 300.19607762 378.57670174 300.26189327 388.50104523 C300.36534096 404.12988939 300.45871449 419.75877717 300.55374146 435.38768005 C325.63374146 435.38768005 350.71374146 435.38768005 376.55374146 435.38768005 C376.61207119 409.2958892 376.61207119 409.2958892 376.65139771 383.2040863 C376.6632355 372.55416422 376.67710347 361.90427393 376.70462036 351.25437927 C376.72465676 343.49592135 376.73748202 335.73748937 376.74191844 327.97900629 C376.7445086 323.87715596 376.75052582 319.77537983 376.76520157 315.67355347 C376.77894815 311.79941449 376.78293028 307.92537908 376.77995682 304.05121803 C376.78049946 302.64210761 376.78437391 301.2329931 376.7921524 299.82390404 C376.94811022 270.06953249 368.92411644 246.19406077 348.08499146 224.8603363 C333.56752392 211.0734556 313.63089418 201.74884295 293.55374146 200.38768005 C292.84862427 200.33611755 292.14350708 200.28455505 291.41702271 200.23143005 C271.52466803 199.44231185 254.02516294 207.58226535 238.55374146 219.38768005 Z M18.55374146 205.38768005 C18.55374146 281.28768005 18.55374146 357.18768005 18.55374146 435.38768005 C43.63374146 435.38768005 68.71374146 435.38768005 94.55374146 435.38768005 C94.55374146 359.48768005 94.55374146 283.58768005 94.55374146 205.38768005 C69.47374146 205.38768005 44.39374146 205.38768005 18.55374146 205.38768005 Z " fill="#000000" transform="translate(58.446258544921875,-0.3876800537109375)"/>
</svg>
