<?xml version="1.0" encoding="UTF-8"?>
<svg version="1.1" xmlns="http://www.w3.org/2000/svg" width="512" height="512">
<path d="M0 0 C0.82580566 0.36206543 1.65161133 0.72413086 2.50244141 1.09716797 C35.47730997 15.69217146 71.68492332 39.14597184 85.80957031 73.99755859 C93.20116943 93.87137676 93.8411202 115.43284573 85.26953125 135.04296875 C76.99322371 153.02260641 63.71700074 168.1225887 48 180 C46.98808594 180.77730469 45.97617187 181.55460938 44.93359375 182.35546875 C-13.53031034 226.27160324 -92.35553142 239.21048549 -163.8125 239.25 C-164.91470886 239.25067474 -166.01691772 239.25134949 -167.15252686 239.25204468 C-186.2606592 239.23356419 -205.04495688 238.42044589 -224 236 C-224.66674744 235.91514343 -225.33349487 235.83028687 -226.02044678 235.74285889 C-252.55678474 232.32922107 -278.68544968 226.73243623 -304 218 C-304.8451416 217.71576172 -305.6902832 217.43152344 -306.56103516 217.13867188 C-347.32014362 203.3714151 -392.09820317 179.71968808 -412.97460938 140.15283203 C-414.91497727 136.19392468 -416.50979297 132.14602155 -418 128 C-418.33902344 127.10925781 -418.67804688 126.21851563 -419.02734375 125.30078125 C-425.13763993 106.01251913 -421.27687771 84.35002283 -412.26879883 66.77636719 C-404.03172357 51.49740749 -391.78113371 38.41446748 -378 28 C-376.98808594 27.22269531 -375.97617187 26.44539063 -374.93359375 25.64453125 C-329.50242046 -8.48185061 -271.46491441 -22.6100329 -216 -29 C-215.01257813 -29.11859375 -214.02515625 -29.2371875 -213.0078125 -29.359375 C-142.56827854 -37.46474603 -64.98257929 -28.73109654 0 0 Z M-193 5 C-194.20295286 7.85364198 -194.20295286 7.85364198 -194.921875 11.4375 C-195.08161804 12.12851807 -195.24136108 12.81953613 -195.40594482 13.53149414 C-197.98044512 24.95700476 -200.07564718 36.49352598 -202.25 48 C-202.7131235 50.43237132 -203.17666206 52.86466366 -203.640625 55.296875 C-204.76519938 61.19701533 -205.8846619 67.0981071 -207 73 C-207.31018066 72.12537109 -207.62036133 71.25074219 -207.93994141 70.34960938 C-212.2685319 58.5548163 -218.76582178 49.37166245 -230.3515625 43.88671875 C-242.48018086 38.9672939 -255.75236393 38.68975876 -268.66796875 38.69921875 C-270.00458403 38.69531597 -271.34119811 38.69097816 -272.67781067 38.68623352 C-275.44320761 38.67886685 -278.20847656 38.67899709 -280.97387695 38.68432617 C-284.51225698 38.69018748 -288.0501248 38.67298618 -291.58841991 38.6499815 C-294.98995844 38.63173923 -298.39138155 38.635427 -301.79296875 38.63671875 C-303.05956833 38.627509 -304.32616791 38.61829926 -305.63114929 38.60881042 C-306.80369766 38.61503922 -307.97624603 38.62126801 -309.18432617 38.62768555 C-310.2138591 38.62705612 -311.24339203 38.6264267 -312.30412292 38.6257782 C-315.4980635 39.06913751 -316.79311551 39.65236215 -319 42 C-320.02713082 44.69842596 -320.02713082 44.69842596 -320.54882812 47.87426758 C-320.79049713 49.09757278 -321.03216614 50.32087799 -321.28115845 51.58125305 C-321.53147605 52.93562609 -321.78149703 54.29005398 -322.03125 55.64453125 C-322.30547486 57.06405567 -322.5811747 58.48329584 -322.85824585 59.90226746 C-323.60302325 63.73802663 -324.32763176 67.57734656 -325.0484848 71.41766357 C-325.80244724 75.41668003 -326.57406188 79.41228357 -327.34423828 83.40820312 C-328.45225293 89.16538612 -329.55408337 94.92369299 -330.64861488 100.68345451 C-332.44802711 110.15021119 -334.28642235 119.60870319 -336.15216827 129.06259727 C-336.99577823 133.33952761 -337.83529301 137.61726379 -338.67512894 141.89493656 C-339.33816089 145.27125652 -340.00268165 148.64726728 -340.6706543 152.02261353 C-341.40922486 155.76385847 -342.13930443 159.50666324 -342.8671875 163.25 C-343.08523041 164.34475143 -343.30327332 165.43950287 -343.52792358 166.56742859 C-344.53191669 171.77337141 -345.47402919 176.69517431 -345 182 C-342.48295195 184.51704805 -340.92327101 184.24669599 -337.48840332 184.27789307 C-336.73941772 184.2738446 -335.99043213 184.26979614 -335.21875 184.265625 C-334.44946167 184.26753845 -333.68017334 184.2694519 -332.88757324 184.27142334 C-331.2601692 184.27278508 -329.6327543 184.26908939 -328.00537109 184.26074219 C-325.50984369 184.25004221 -323.01503618 184.26063751 -320.51953125 184.2734375 C-318.94010257 184.2721159 -317.36067434 184.2695535 -315.78125 184.265625 C-314.65777161 184.27169769 -314.65777161 184.27169769 -313.51159668 184.27789307 C-309.29688852 184.38187202 -309.29688852 184.38187202 -306 182 C-305.41722835 179.80225947 -304.93012166 177.57877702 -304.4921875 175.34765625 C-304.36184113 174.69171982 -304.23149475 174.03578339 -304.09719849 173.35997009 C-303.8230701 171.97286643 -303.55264398 170.58502672 -303.28564453 169.1965332 C-302.87696213 167.0726968 -302.45709012 164.95131744 -302.03515625 162.83007812 C-300.56527375 155.96626083 -300.56527375 155.96626083 -300 149 C-299.01326294 149.01571045 -299.01326294 149.01571045 -298.0065918 149.03173828 C-271.22986578 149.39965921 -247.02769217 149.66532525 -226.33984375 130.3828125 C-220.01619484 124.51070277 -220.01619484 124.51070277 -217 117 C-216.34 117 -215.68 117 -215 117 C-215.19335938 117.73863281 -215.38671875 118.47726562 -215.5859375 119.23828125 C-219.49032901 132.45344336 -219.49032901 132.45344336 -220 146 C-217.61768911 148.45354521 -216.18809948 148.97743828 -212.76367188 149.38818359 C-210.88518555 149.39325928 -210.88518555 149.39325928 -208.96875 149.3984375 C-208.29581909 149.40130768 -207.62288818 149.40417786 -206.92956543 149.40713501 C-205.51081498 149.40917096 -204.09203616 149.40367382 -202.67333984 149.39111328 C-200.506846 149.37505076 -198.34221736 149.39097554 -196.17578125 149.41015625 C-194.79426673 149.40817373 -193.41275337 149.40432987 -192.03125 149.3984375 C-190.77892578 149.39505371 -189.52660156 149.39166992 -188.23632812 149.38818359 C-184.62293346 148.9547725 -183.54275832 148.53471934 -181 146 C-179.88575832 142.887224 -179.88575832 142.887224 -179.26074219 139.20532227 C-179.12360809 138.51880585 -178.986474 137.83228943 -178.84518433 137.12496948 C-178.3965763 134.85822604 -177.9715454 132.58774557 -177.546875 130.31640625 C-177.24003309 128.73818082 -176.93184734 127.16021611 -176.62237549 125.58250427 C-175.97727587 122.27646816 -175.34279671 118.96864066 -174.71679688 115.65893555 C-173.91465687 111.41815172 -173.09518778 107.18097314 -172.26887131 102.94484043 C-171.48100163 98.90309526 -170.70078018 94.85988719 -169.921875 90.81640625 C-169.77291527 90.04543673 -169.62395554 89.2744672 -169.47048187 88.48013496 C-169.05005761 86.29554773 -168.63495753 84.1100213 -168.22167969 81.92407227 C-167.98503601 80.68069595 -167.74839233 79.43731964 -167.50457764 78.15626526 C-166.89475939 74.87441627 -166.89475939 74.87441627 -167 71 C-163.1455938 71.13989034 -159.29154371 71.28798006 -155.4375 71.4375 C-154.35146484 71.47681641 -153.26542969 71.51613281 -152.14648438 71.55664062 C-151.08623047 71.59853516 -150.02597656 71.64042969 -148.93359375 71.68359375 C-147.96478271 71.72025146 -146.99597168 71.75690918 -145.99780273 71.79467773 C-142.63194702 72.02520829 -139.33368836 72.48838535 -136 73 C-137.66768203 88.21324733 -140.86265495 103.15541202 -143.83740234 118.15454102 C-144.5238875 121.62426026 -145.20361817 125.0952537 -145.8828125 128.56640625 C-146.09527618 129.62581924 -146.30773987 130.68523224 -146.52664185 131.77674866 C-148.08666809 138.84965003 -148.08666809 138.84965003 -148 146 C-145.73249029 148.69841826 -144.24919803 148.97268755 -140.74780273 149.35644531 C-139.48911377 149.34709961 -138.2304248 149.33775391 -136.93359375 149.328125 C-136.25829117 149.32625183 -135.58298859 149.32437866 -134.88722229 149.32244873 C-133.46423378 149.3157451 -132.04126318 149.30186408 -130.6184082 149.28125 C-128.44139456 149.2500558 -126.26510581 149.24027198 -124.08789062 149.234375 C-116.93946716 149.3680182 -116.93946716 149.3680182 -110 148 C-110.14622803 148.6798999 -110.29245605 149.3597998 -110.44311523 150.06030273 C-111.1124637 153.18507942 -111.77502179 156.31125986 -112.4375 159.4375 C-112.66759766 160.50677734 -112.89769531 161.57605469 -113.13476562 162.67773438 C-116.09195154 172.89280275 -116.09195154 172.89280275 -114.98608398 182.71679688 C-111.9550939 184.67511081 -108.87029772 184.44786857 -105.375 184.43359375 C-104.63169434 184.4388356 -103.88838867 184.44407745 -103.12255859 184.44947815 C-101.55242155 184.45589608 -99.98223642 184.45456424 -98.41210938 184.44604492 C-96.00824564 184.43752921 -93.6067542 184.46630361 -91.203125 184.49804688 C-89.67708405 184.49965886 -88.15103888 184.4990814 -86.625 184.49609375 C-85.54677979 184.51294472 -85.54677979 184.51294472 -84.44677734 184.53013611 C-81.34638647 184.48677774 -79.48486879 184.42642898 -77.11010742 182.33789062 C-75.80447409 179.58822166 -75.1730721 177.09212996 -74.61328125 174.09765625 C-74.39736328 172.96005859 -74.18144531 171.82246094 -73.95898438 170.65039062 C-73.74564453 169.46638672 -73.53230469 168.28238281 -73.3125 167.0625 C-73.08755859 165.88236328 -72.86261719 164.70222656 -72.63085938 163.48632812 C-71.28771692 156.29262325 -71.28771692 156.29262325 -71 149 C-70.01326294 149.01571045 -70.01326294 149.01571045 -69.0065918 149.03173828 C-30.77447904 149.73490463 -30.77447904 149.73490463 1.5859375 131.37109375 C2.78089844 130.19740234 2.78089844 130.19740234 4 129 C4.71414063 128.31035156 5.42828125 127.62070312 6.1640625 126.91015625 C18.09839317 114.53807986 23.145815 97.26903959 22.97265625 80.32421875 C22.33610869 69.34765472 18.7821532 59.88651158 11 52 C-3.37033286 39.61601008 -21.29120381 38.67424045 -39.44921875 38.734375 C-40.75027054 38.73246155 -42.05132233 38.7305481 -43.39179993 38.72857666 C-46.11012667 38.72566618 -48.8283199 38.72979663 -51.54663086 38.73925781 C-55.02438274 38.75077661 -58.50183001 38.74398993 -61.97957134 38.73211288 C-65.32364514 38.72315995 -68.66763631 38.72941676 -72.01171875 38.734375 C-73.87880745 38.72830231 -73.87880745 38.72830231 -75.78361511 38.72210693 C-76.93614273 38.72841125 -78.08867035 38.73471558 -79.27612305 38.74121094 C-80.28789108 38.74280212 -81.29965912 38.74439331 -82.34208679 38.74603271 C-85.08142426 39.0077802 -86.71661345 39.48343186 -89 41 C-89.99413989 43.35252734 -89.99413989 43.35252734 -90.44921875 46.15625 C-90.65740234 47.17847656 -90.86558594 48.20070312 -91.08007812 49.25390625 C-91.28052734 50.32511719 -91.48097656 51.39632812 -91.6875 52.5 C-92.10616572 54.61496177 -92.52664834 56.72956493 -92.94921875 58.84375 C-93.21738403 60.25430664 -93.21738403 60.25430664 -93.4909668 61.69335938 C-94 64 -94 64 -95 66 C-95.20302734 65.05640625 -95.20302734 65.05640625 -95.41015625 64.09375 C-97.53285419 55.65380129 -101.56101996 50.17603603 -108.6875 45.1875 C-120.54272465 38.39019938 -135.45515673 38.83215985 -148.6875 38.9375 C-149.78255859 38.94201172 -150.87761719 38.94652344 -152.00585938 38.95117188 C-154.67063309 38.96280844 -157.33528517 38.97915436 -160 39 C-159.77280273 37.87356079 -159.77280273 37.87356079 -159.54101562 36.72436523 C-158.85374947 33.29675744 -158.17679228 29.86719059 -157.5 26.4375 C-157.26152344 25.25607422 -157.02304687 24.07464844 -156.77734375 22.85742188 C-154.88128797 14.4731126 -154.88128797 14.4731126 -155 6 C-158.85616772 2.97642915 -161.87143661 2.62436756 -166.69140625 2.63671875 C-167.96564453 2.63736328 -169.23988281 2.63800781 -170.55273438 2.63867188 C-171.21104248 2.64697021 -171.86935059 2.65526855 -172.54760742 2.66381836 C-174.56013898 2.68747225 -176.57134845 2.68436377 -178.58398438 2.67773438 C-186.23021343 2.24122989 -186.23021343 2.24122989 -193 5 Z " fill="#000000" transform="translate(421,152)"/>
<path d="M0 0 C8.36350916 -0.07001609 16.72689253 -0.12306979 25.09062386 -0.15543652 C28.97572427 -0.17098374 32.86062178 -0.19201728 36.74560547 -0.22631836 C40.5063255 -0.25930829 44.2668524 -0.27693489 48.02770615 -0.28463173 C49.45078439 -0.29010516 50.87385404 -0.30078934 52.2968483 -0.31719017 C66.89421435 -0.4784898 81.63220918 0.87309192 93.09375 10.81640625 C101.48972189 19.62150389 103.34187635 30.42755286 103.20703125 42.18359375 C102.31018711 58.71598485 95.84135324 72.50934886 84 84 C83.36320312 84.64582031 82.72640625 85.29164063 82.0703125 85.95703125 C74.74638949 92.93147246 66.21299999 96.92657418 56.28125 98.66015625 C55.183218 98.85198235 55.183218 98.85198235 54.06300354 99.04768372 C45.3667746 100.43315615 36.71761422 100.32956148 27.9375 100.1875 C26.28061141 100.17239456 24.62370917 100.15871672 22.96679688 100.14648438 C18.977516 100.11401434 14.98891752 100.06257251 11 100 C10.8860791 100.79559326 10.7721582 101.59118652 10.65478516 102.41088867 C9.5149569 110.12145823 8.08079016 117.70888658 6.375 125.3125 C5.59125 128.839375 4.8075 132.36625 4 136 C-5.9 136 -15.8 136 -26 136 C-24.87497207 124.74972068 -24.87497207 124.74972068 -23.9753418 120.10339355 C-23.7734726 119.04918213 -23.57160339 117.9949707 -23.36361694 116.90881348 C-23.14436554 115.78841675 -22.92511414 114.66802002 -22.69921875 113.51367188 C-22.46659332 112.30598145 -22.2339679 111.09829102 -21.99429321 109.85400391 C-21.36127829 106.57290913 -20.72428049 103.29263927 -20.08523941 100.01271629 C-19.41549529 96.57092913 -18.75044187 93.12823529 -18.0847168 89.68566895 C-16.96813273 83.91548724 -15.84798193 78.14600696 -14.72558594 72.37695312 C-13.42765886 65.70548652 -12.13505017 59.03300639 -10.8453207 52.35995054 C-9.60243445 45.92973856 -8.35620541 39.50017912 -7.10830688 33.07093811 C-6.57779631 30.33752452 -6.04839484 27.60389956 -5.51986694 24.87010193 C-4.78363917 21.06311477 -4.04248811 17.25709555 -3.30078125 13.45117188 C-3.08152985 12.3145813 -2.86227844 11.17799072 -2.63638306 10.00695801 C-2.43451385 8.97530518 -2.23264465 7.94365234 -2.0246582 6.8807373 C-1.76251274 5.531357 -1.76251274 5.531357 -1.49507141 4.15471649 C-1 2 -1 2 0 0 Z M26 22 C22.00719774 40.60806636 18.45086062 59.28564868 15 78 C39.01054977 79.50252691 39.01054977 79.50252691 60.125 70.125 C69.0357047 60.95221575 71.43456517 49.62730611 71.265625 37.16796875 C70.87187391 32.471908 70.12155033 30.57836257 67 27 C60.34098878 22.89339916 53.46268775 21.8640461 45.7265625 21.90234375 C44.57285156 21.90556641 43.41914063 21.90878906 42.23046875 21.91210938 C40.44576172 21.92467773 40.44576172 21.92467773 38.625 21.9375 C36.80548828 21.94426758 36.80548828 21.94426758 34.94921875 21.95117188 C31.96609493 21.96291646 28.98307321 21.9793416 26 22 Z " fill="#000000" transform="translate(336,196)"/>
<path d="M0 0 C8.45932722 -0.0934744 16.91843177 -0.16415137 25.37815094 -0.20724869 C29.30811556 -0.22795337 33.23772194 -0.25594898 37.16748047 -0.30175781 C40.97361164 -0.34583809 44.77940254 -0.36926504 48.58576965 -0.37950897 C50.02396489 -0.38679076 51.46214561 -0.40100267 52.90019226 -0.42292023 C67.96086837 -0.64292782 82.52930477 1.21119482 93.953125 11.8125 C101.60783993 19.78884161 104.10416821 29.11442193 104 40 C102.94111246 57.62291404 96.58002137 73.58888944 83.64453125 85.86328125 C70.47166576 96.50664524 55.8145507 100.20981133 39.125 100.09765625 C38.31506592 100.0962413 37.50513184 100.09482635 36.6706543 100.09336853 C34.11373006 100.08782383 31.55689724 100.07528207 29 100.0625 C27.25390753 100.05747784 25.50781366 100.05291619 23.76171875 100.04882812 C19.50777791 100.0378726 15.25390439 100.02064694 11 100 C10.93631226 100.96160034 10.93631226 100.96160034 10.87133789 101.94262695 C10.28766662 109.49661521 8.98655751 116.77808102 7.4375 124.1875 C6.2309375 130.0346875 6.2309375 130.0346875 5 136 C-5.23 136 -15.46 136 -26 136 C-24.67031914 127.35707444 -23.25702543 118.80326822 -21.56982422 110.2331543 C-21.33544647 109.03156677 -21.10106873 107.82997925 -20.85958862 106.59197998 C-20.22523353 103.34248145 -19.58861066 100.09344371 -18.95091391 96.84460044 C-18.28173089 93.43239698 -17.61553634 90.01961008 -16.94900513 86.60688782 C-15.69034405 80.16474801 -14.42905199 73.72312635 -13.16677964 67.28169328 C-11.72817479 59.93973498 -10.29255602 52.59719378 -8.85716987 45.25460565 C-5.90806816 30.16909273 -2.9552756 15.08430474 0 0 Z M27 22 C25.00681956 27.40105756 23.92767659 32.87371268 22.8359375 38.5078125 C22.63900299 39.51085419 22.44206848 40.51389587 22.23916626 41.54733276 C21.82546391 43.65991793 21.41374995 45.77289333 21.00390625 47.88623047 C20.3755956 51.12193274 19.73901403 54.35593134 19.1015625 57.58984375 C18.70002455 59.64573647 18.29896637 61.70172296 17.8984375 63.7578125 C17.61255264 65.20790207 17.61255264 65.20790207 17.32089233 66.68728638 C17.14716095 67.58857269 16.97342957 68.48985901 16.79443359 69.41845703 C16.56365616 70.60376511 16.56365616 70.60376511 16.32821655 71.8130188 C15.90105643 74.29070457 15.90105643 74.29070457 16 78 C40.6252229 79.41470101 40.6252229 79.41470101 62 69 C69.11086979 61.52160211 72.00582633 49.90041357 72.17578125 39.73828125 C71.91851963 34.26718407 70.57434752 30.53291732 66.625 26.6875 C58.09993745 21.20710265 48.85490759 21.8651286 39.0625 21.9375 C37.90169922 21.94201172 36.74089844 21.94652344 35.54492188 21.95117188 C32.69656066 21.96289353 29.84830778 21.9793024 27 22 Z " fill="#000000" transform="translate(106,196)"/>
<path d="M0 0 C1.25159912 0.00523682 2.50319824 0.01047363 3.79272461 0.01586914 C4.78942421 0.01799156 4.78942421 0.01799156 5.80625916 0.02015686 C7.93590735 0.02577021 10.06545175 0.03832485 12.19506836 0.05102539 C13.63582205 0.05603868 15.07657739 0.06060188 16.51733398 0.06469727 C20.05577938 0.07574394 23.59416375 0.09301747 27.13256836 0.11352539 C26.34555337 4.61435167 25.55212307 9.11402453 24.75756836 13.61352539 C24.42499023 15.51618164 24.42499023 15.51618164 24.08569336 17.45727539 C23.75698242 19.31352539 23.75698242 19.31352539 23.42163086 21.20727539 C23.12313232 22.90400391 23.12313232 22.90400391 22.81860352 24.63500977 C22.05536354 28.50498952 21.11668043 32.2941462 20.13256836 36.11352539 C21.70385498 36.08995972 21.70385498 36.08995972 23.30688477 36.06591797 C27.26171924 36.01086326 31.21652127 35.97690612 35.17163086 35.94873047 C36.87058238 35.93381332 38.56949657 35.91347224 40.26831055 35.88720703 C69.05805108 35.45383136 69.05805108 35.45383136 79.13256836 44.11352539 C83.47984155 48.34904348 85.914556 52.47917362 86.41893005 58.57377625 C86.42014733 68.03449827 85.45023076 76.83499652 83.54272461 86.13305664 C83.27481427 87.49280901 83.00819446 88.85281621 82.74278259 90.21305847 C82.05132916 93.73753011 81.34171024 97.25809245 80.62811279 100.77813721 C80.0460267 103.66526782 79.47697721 106.55489791 78.90851688 109.44473743 C77.73480257 115.41094165 76.55118499 121.37518491 75.34765625 127.33544922 C75.13669815 128.38195145 74.92574005 129.42845367 74.70838928 130.50666809 C74.13256836 133.11352539 74.13256836 133.11352539 73.13256836 136.11352539 C62.90256836 136.11352539 52.67256836 136.11352539 42.13256836 136.11352539 C42.81319336 132.44227539 43.49381836 128.77102539 44.19506836 124.98852539 C44.42863037 123.71895996 44.66219238 122.44939453 44.90283203 121.14135742 C46.09760868 114.64822148 47.3115656 108.15962648 48.56303406 101.67715454 C49.22234695 98.25431708 49.87272961 94.82980993 50.52218628 91.40509033 C50.84446022 89.71759468 51.17070295 88.03085191 51.50100708 86.34490967 C51.96927448 83.95192402 52.42337871 81.55662119 52.87475586 79.16040039 C53.01718216 78.45092255 53.15960846 77.7414447 53.30635071 77.01046753 C54.1461901 72.45460687 54.09911557 68.64301703 53.13256836 64.11352539 C51.23722961 61.52897254 50.24430319 61.15077034 47.13256836 60.11352539 C44.69476459 59.96083358 42.27972935 59.85669842 39.83959961 59.79711914 C38.78055672 59.76594749 38.78055672 59.76594749 37.70011902 59.73414612 C35.44853285 59.66885048 33.19683174 59.60985892 30.94506836 59.55102539 C29.41706176 59.50782114 27.88906672 59.46420623 26.36108398 59.42016602 C22.61836274 59.31318965 18.87552606 59.21186617 15.13256836 59.11352539 C15.09450577 59.65403534 15.05644318 60.19454529 15.01722717 60.75143433 C14.33448934 68.85993822 12.76570575 76.7752804 11.19116211 84.74633789 C10.90072969 86.23412434 10.6107026 87.72198997 10.32106018 89.20993042 C9.5639335 93.09369213 8.80136686 96.9763656 8.03759766 100.85882568 C7.11895846 105.53465122 6.20719575 110.21182204 5.29425812 114.88876343 C3.91224591 121.96471912 2.52160043 129.03892813 1.13256836 136.11352539 C-9.09743164 136.11352539 -19.32743164 136.11352539 -29.86743164 136.11352539 C-26.59668225 118.35541776 -23.25859926 100.61334998 -19.82055664 82.88696289 C-19.59470634 81.72145527 -19.36885605 80.55594765 -19.1361618 79.35512161 C-17.94972947 73.23283493 -16.76196285 67.11080902 -15.57299805 60.98901367 C-14.34673051 54.67371007 -13.12522392 48.35749471 -11.90468216 42.04108238 C-10.96019947 37.157789 -10.01230298 32.27516292 -9.06343842 27.39271927 C-8.61080194 25.06045046 -8.15946675 22.72792871 -7.70944977 20.39515305 C-7.08636865 17.16693519 -6.45848471 13.93968834 -5.8293457 10.71264648 C-5.64443069 9.74878021 -5.45951569 8.78491394 -5.26899719 7.7918396 C-5.09815109 6.92075562 -4.92730499 6.04967163 -4.75128174 5.15219116 C-4.53011374 4.0115323 -4.53011374 4.0115323 -4.30447769 2.84782982 C-3.56416 -0.08992982 -3.15764957 0.1250155 0 0 Z " fill="#000000" transform="translate(234.867431640625,159.886474609375)"/>
<path d="M0 0 C1.11246094 -0.020625 2.22492188 -0.04125 3.37109375 -0.0625 C9.90992474 -0.09330721 16.10857456 0.12083617 22 3.25 C25.33765688 7.59906805 25.62914983 11.94962817 25 17.25 C23.44356553 26.89024143 21.0780082 33.982317 14.3125 41.0625 C6.56539257 46.17851434 -1.55946843 46.67351851 -10.625 46.4375 C-11.62917969 46.42396484 -12.63335937 46.41042969 -13.66796875 46.39648438 C-16.11260084 46.36156106 -18.55589019 46.30978628 -21 46.25 C-20.39473909 40.27120319 -19.5632225 34.42617778 -18.40625 28.53125 C-18.25466431 27.74729858 -18.10307861 26.96334717 -17.94689941 26.15563965 C-17.6293045 24.51845219 -17.3099115 22.88161257 -16.98876953 21.24511719 C-16.49599883 18.72957444 -16.0113535 16.21255394 -15.52734375 13.6953125 C-15.21662782 12.09886445 -14.90544707 10.50250678 -14.59375 8.90625 C-14.44893188 8.15218872 -14.30411377 7.39812744 -14.15490723 6.62121582 C-12.43508704 -2.07103994 -8.04041654 0.03625892 0 0 Z " fill="#000000" transform="translate(378,222.75)"/>
<path d="M0 0 C4.16653186 -0.08777806 8.33282276 -0.14065272 12.5 -0.1875 C13.67304688 -0.21263672 14.84609375 -0.23777344 16.0546875 -0.26367188 C30.22938433 -0.38312157 30.22938433 -0.38312157 35.9765625 4.7734375 C39.20787597 11.80339429 37.46472495 21.65878982 34.98046875 28.75 C32.10720828 35.34361766 28.75392721 40.84252026 22.01171875 43.90234375 C12.12377214 47.32448795 1.30665549 46.20769486 -9 46 C-7.88046178 40.09151625 -6.75941198 34.18332208 -5.63696289 28.27539062 C-5.25536243 26.26570386 -4.87417451 24.25593872 -4.4934082 22.24609375 C-3.94591072 19.35656338 -3.39692834 16.46731849 -2.84765625 13.578125 C-2.6778273 12.68007141 -2.50799835 11.78201782 -2.33302307 10.85675049 C-2.17293259 10.01618103 -2.0128421 9.17561157 -1.84790039 8.30957031 C-1.70800186 7.57232727 -1.56810333 6.83508423 -1.42396545 6.07550049 C-1.00670575 4.03282764 -0.52132268 2.01837918 0 0 Z " fill="#000000" transform="translate(136,223)"/>
</svg>
