<?xml version="1.0" encoding="UTF-8"?>
<svg version="1.1" xmlns="http://www.w3.org/2000/svg" width="512" height="512">
<path d="M0 0 C2.05013207 -0.00270263 4.10026288 -0.00659141 6.15039062 -0.01159668 C10.42330263 -0.0174555 14.69587755 -0.00904641 18.96875 0.00976562 C24.40509892 0.03255272 29.84065751 0.01941007 35.27697754 -0.00452423 C39.50331416 -0.01908063 43.72946797 -0.01433144 47.95581055 -0.00401306 C49.95857846 -0.00137287 51.96136379 -0.00451839 53.96411133 -0.01393127 C68.76510531 -0.06825474 82.29169478 1.1600315 95.6875 8.09375 C96.34621094 8.42963135 97.00492187 8.7655127 97.68359375 9.11157227 C104.65602771 12.86043786 110.03702502 17.87200047 115.5 23.53125 C116.23734375 24.23765625 116.9746875 24.9440625 117.734375 25.671875 C122.0348607 30.0390349 124.96977243 34.80663412 127.75 40.21875 C128.22614746 41.13466919 128.22614746 41.13466919 128.71191406 42.0690918 C135.17581341 55.37242196 136.06346135 67.79419762 135.890625 82.2734375 C135.88314596 84.13672268 135.87746091 86.00001584 135.87347412 87.86331177 C135.85834851 92.71969088 135.81918277 97.57557604 135.7746582 102.4317627 C135.73342009 107.40626345 135.71540273 112.38084559 135.6953125 117.35546875 C135.65267311 127.08094379 135.58458442 136.8060555 135.5 146.53125 C136.50652115 146.52236755 137.5130423 146.51348511 138.55006409 146.5043335 C148.09610502 146.42278712 157.64207408 146.36306556 167.18838596 146.32400131 C172.09473396 146.30324192 177.00079786 146.27514068 181.90698242 146.22949219 C186.65326108 146.18561442 191.39926875 146.16202563 196.14573479 146.15174103 C197.94479569 146.1444241 199.74384396 146.13013904 201.54278755 146.10832977 C215.78437031 145.94274538 228.80992611 147.42826995 241.6875 154.09375 C242.34621094 154.42963135 243.00492187 154.7655127 243.68359375 155.11157227 C250.65602771 158.86043786 256.03702502 163.87200047 261.5 169.53125 C262.23734375 170.23765625 262.9746875 170.9440625 263.734375 171.671875 C268.0348607 176.0390349 270.96977243 180.80663412 273.75 186.21875 C274.22614746 187.13466919 274.22614746 187.13466919 274.71191406 188.0690918 C281.4529481 201.94279198 282.10127415 215.04429759 282.03125 230.15234375 C282.03395193 232.22632529 282.03784014 234.30030558 282.04284668 236.37428284 C282.04871009 240.70024798 282.04028218 245.02588049 282.02148438 249.35180664 C281.9987114 254.85656232 282.01182807 260.3605369 282.03577423 265.86526394 C282.05033032 270.14221423 282.04558133 274.41898385 282.03526306 278.69594002 C282.03262205 280.7238277 282.03577143 282.75173257 282.04518127 284.77960014 C282.0990979 299.66114079 280.90990725 313.24819891 273.9375 326.71875 C273.60161865 327.37746094 273.2657373 328.03617187 272.91967773 328.71484375 C269.17081214 335.68727771 264.15924953 341.06827502 258.5 346.53125 C257.79359375 347.26859375 257.0871875 348.0059375 256.359375 348.765625 C252.01171139 353.04691206 247.25659325 355.99804742 241.875 358.78125 C240.97164917 359.25739746 240.97164917 359.25739746 240.05004883 359.74316406 C226.64253703 366.29113876 213.4901387 367.09901242 198.87890625 366.921875 C197.03947064 366.91439387 195.20002695 366.90870982 193.36058044 366.90472412 C188.5716158 366.88961488 183.78315384 366.85046423 178.99438477 366.8059082 C174.08682043 366.76463383 169.17917308 366.74664514 164.27148438 366.7265625 C154.68077143 366.6839522 145.09042788 366.61588455 135.5 366.53125 C135.50888245 367.53777115 135.51776489 368.5442923 135.5269165 369.58131409 C135.60846288 379.12735502 135.66818444 388.67332408 135.70724869 398.21963596 C135.72800808 403.12598396 135.75610932 408.03204786 135.80175781 412.93823242 C135.84563558 417.68451108 135.86922437 422.43051875 135.87950897 427.17698479 C135.8868259 428.97604569 135.90111096 430.77509396 135.92292023 432.57403755 C136.08850462 446.81562031 134.60298005 459.84117611 127.9375 472.71875 C127.60161865 473.37746094 127.2657373 474.03617187 126.91967773 474.71484375 C123.17081214 481.68727771 118.15924953 487.06827502 112.5 492.53125 C111.79359375 493.26859375 111.0871875 494.0059375 110.359375 494.765625 C106.01171139 499.04691206 101.25659325 501.99804742 95.875 504.78125 C94.97164917 505.25739746 94.97164917 505.25739746 94.05004883 505.74316406 C80.07264067 512.56946534 66.23355677 513.13409747 51 513.0625 C48.94986793 513.06520263 46.89973712 513.06909141 44.84960938 513.07409668 C40.57669737 513.0799555 36.30412245 513.07154641 32.03125 513.05273438 C26.59490108 513.02994728 21.15934249 513.04308993 15.72302246 513.06702423 C11.49668584 513.08158063 7.27053203 513.07683144 3.04418945 513.06651306 C1.04142154 513.06387287 -0.96136379 513.06701839 -2.96411133 513.07643127 C-17.76510531 513.13075474 -31.29169478 511.9024685 -44.6875 504.96875 C-45.34621094 504.63286865 -46.00492188 504.2969873 -46.68359375 503.95092773 C-53.65602771 500.20206214 -59.03702502 495.19049953 -64.5 489.53125 C-65.23734375 488.82484375 -65.9746875 488.1184375 -66.734375 487.390625 C-71.0348607 483.0234651 -73.96977243 478.25586588 -76.75 472.84375 C-77.06743164 472.23313721 -77.38486328 471.62252441 -77.71191406 470.9934082 C-84.17581341 457.69007804 -85.06346135 445.26830238 -84.890625 430.7890625 C-84.88314596 428.92577732 -84.87746091 427.06248416 -84.87347412 425.19918823 C-84.85834851 420.34280912 -84.81918277 415.48692396 -84.7746582 410.6307373 C-84.73342009 405.65623655 -84.71540273 400.68165441 -84.6953125 395.70703125 C-84.65267311 385.98155621 -84.58458442 376.2564445 -84.5 366.53125 C-85.50652115 366.54013245 -86.5130423 366.54901489 -87.55006409 366.5581665 C-97.09610502 366.63971288 -106.64207408 366.69943444 -116.18838596 366.73849869 C-121.09473396 366.75925808 -126.00079786 366.78735932 -130.90698242 366.83300781 C-135.65326108 366.87688558 -140.39926875 366.90047437 -145.14573479 366.91075897 C-146.94479569 366.9180759 -148.74384396 366.93236096 -150.54278755 366.95417023 C-164.78437031 367.11975462 -177.80992611 365.63423005 -190.6875 358.96875 C-191.34621094 358.63286865 -192.00492188 358.2969873 -192.68359375 357.95092773 C-199.65602771 354.20206214 -205.03702502 349.19049953 -210.5 343.53125 C-211.23734375 342.82484375 -211.9746875 342.1184375 -212.734375 341.390625 C-217.0348607 337.0234651 -219.96977243 332.25586588 -222.75 326.84375 C-223.06743164 326.23313721 -223.38486328 325.62252441 -223.71191406 324.9934082 C-230.49278883 311.03771195 -231.10080577 297.85369117 -231.03125 282.65625 C-231.03395162 280.55745261 -231.03783957 278.45865644 -231.04284668 276.35986328 C-231.04871022 271.98262497 -231.04028085 267.60571541 -231.02148438 263.22851562 C-230.99869704 257.65416282 -231.01183709 252.08058073 -231.03577423 246.5062561 C-231.05031765 242.17873463 -231.04558727 237.85139199 -231.03526306 233.52386475 C-231.03261932 231.47003078 -231.03578136 229.41617988 -231.04518127 227.36236572 C-231.09787671 212.61765083 -229.75999663 199.77424234 -222.9375 186.40625 C-222.60161865 185.74302734 -222.2657373 185.07980469 -221.91967773 184.39648438 C-218.17833444 177.39084223 -213.17733551 172.0116837 -207.5 166.53125 C-206.79359375 165.79390625 -206.0871875 165.0565625 -205.359375 164.296875 C-201.01171139 160.01558794 -196.25659325 157.06445258 -190.875 154.28125 C-190.27276611 153.96381836 -189.67053223 153.64638672 -189.05004883 153.31933594 C-175.64253703 146.77136124 -162.4901387 145.96348758 -147.87890625 146.140625 C-146.03947064 146.14810613 -144.20002695 146.15379018 -142.36058044 146.15777588 C-137.5716158 146.17288512 -132.78315384 146.21203577 -127.99438477 146.2565918 C-123.08682043 146.29786617 -118.17917308 146.31585486 -113.27148438 146.3359375 C-103.68077143 146.3785478 -94.09042788 146.44661545 -84.5 146.53125 C-84.50888245 145.50998016 -84.51776489 144.48871033 -84.5269165 143.43649292 C-84.60840962 133.75769411 -84.66815937 124.07896595 -84.70724869 114.39990044 C-84.7280213 109.42514493 -84.7561476 104.45066893 -84.80175781 99.47607422 C-84.84558727 94.66496198 -84.86921451 89.85411664 -84.87950897 85.04281998 C-84.88683437 83.21781342 -84.90113679 81.39281956 -84.92292023 79.56792831 C-85.08431905 65.4714482 -83.45481675 53.17627323 -76.9375 40.40625 C-76.43367798 39.41141602 -76.43367798 39.41141602 -75.91967773 38.39648438 C-72.17833444 31.39084223 -67.17733551 26.0116837 -61.5 20.53125 C-60.79359375 19.79390625 -60.0871875 19.0565625 -59.359375 18.296875 C-55.01171139 14.01558794 -50.25659325 11.06445258 -44.875 8.28125 C-44.27276611 7.96381836 -43.67053223 7.64638672 -43.05004883 7.31933594 C-29.07264067 0.49303466 -15.23355677 -0.07159747 0 0 Z M-42.30859375 45.109375 C-54.60685307 58.70103414 -54.65835623 74.57695341 -54.59765625 91.94140625 C-54.59578796 93.5203802 -54.594366 95.09935473 -54.59336853 96.67832947 C-54.5895757 100.80628092 -54.57977353 104.93419641 -54.56866455 109.06213379 C-54.5583804 113.28555821 -54.55385599 117.50898851 -54.54882812 121.73242188 C-54.53814793 129.9987143 -54.521111 138.26497766 -54.5 146.53125 C-53.43368851 146.53711624 -52.36737701 146.54298248 -51.26875305 146.54902649 C-41.2190356 146.60624315 -31.16953476 146.67899932 -21.12003803 146.76696491 C-15.953495 146.81168956 -10.7870312 146.85094115 -5.62036133 146.87768555 C-0.63408948 146.9036975 4.35187779 146.94408516 9.3379612 146.99443626 C11.24010237 147.01111921 13.14229625 147.02262459 15.04450035 147.02886391 C17.70927219 147.03848943 20.3732623 147.06653001 23.0378418 147.09887695 C23.82402893 147.09744186 24.61021606 147.09600677 25.42022705 147.0945282 C29.95326891 147.17233337 32.89292818 147.73016545 36.5 150.53125 C39.33478427 154.1954253 39.91012197 156.94197985 39.875 161.53125 C39.88273438 162.541875 39.89046875 163.5525 39.8984375 164.59375 C39.43425941 168.01592569 38.6093255 169.80478559 36.5 172.53125 C32.40667989 175.6365981 28.8635805 175.96041991 23.88696289 175.91651917 C22.7488768 175.92437271 22.7488768 175.92437271 21.58779907 175.93238491 C19.04925561 175.94633641 16.51122133 175.93904739 13.97265625 175.93188477 C12.15066578 175.93762808 10.32867912 175.94471118 8.50669861 175.95303345 C4.58345007 175.96814881 0.66033763 175.97392056 -3.26293945 175.97250557 C-9.47549992 175.97047057 -15.68787795 175.99005052 -21.90039062 176.01268005 C-33.97887626 176.05367479 -46.05734762 176.07225251 -58.13588715 176.08885193 C-73.48097462 176.11119402 -88.82601972 176.14492188 -104.17103863 176.19605106 C-110.33675146 176.21588946 -116.50236926 176.22554726 -122.66811275 176.22700322 C-126.5200987 176.2297704 -130.37203299 176.24063798 -134.22399712 176.25351334 C-135.99879918 176.25776241 -137.77361316 176.25867394 -139.54841805 176.25583839 C-158.27666207 176.22937029 -174.09034196 177.50732353 -188.30859375 191.109375 C-200.42186907 204.49659549 -200.65940628 220.13991899 -200.66796875 237.265625 C-200.67119016 238.79103627 -200.67455487 240.31644725 -200.67805481 241.84185791 C-200.68401558 245.02901932 -200.6858979 248.21615373 -200.68530273 251.40332031 C-200.68520135 255.45203671 -200.69884242 259.50057681 -200.71607494 263.54925156 C-200.72729044 266.6980262 -200.72921903 269.84675951 -200.72869301 272.99555206 C-200.72985922 274.48641822 -200.73420286 275.97728593 -200.74202538 277.46813202 C-200.82888455 295.73232858 -199.00731254 310.66160954 -185.921875 324.33984375 C-172.33021586 336.63810307 -156.45429659 336.68960623 -139.08984375 336.62890625 C-137.5108698 336.62703796 -135.93189527 336.625616 -134.35292053 336.62461853 C-130.22496908 336.6208257 -126.09705359 336.61102353 -121.96911621 336.59991455 C-117.74569179 336.5896304 -113.52226149 336.58510599 -109.29882812 336.58007812 C-101.0325357 336.56939793 -92.76627234 336.552361 -84.5 336.53125 C-84.49120064 334.93178276 -84.49120064 334.93178276 -84.48222351 333.30000305 C-84.42500685 323.2502856 -84.35225068 313.20078476 -84.26428509 303.15128803 C-84.21956044 297.984745 -84.18030885 292.8182812 -84.15356445 287.65161133 C-84.1275525 282.66533948 -84.08716484 277.67937221 -84.03681374 272.6932888 C-84.02013079 270.79114763 -84.00862541 268.88895375 -84.00238609 266.98674965 C-83.99276057 264.32197781 -83.96471999 261.6579877 -83.93237305 258.9934082 C-83.93452568 257.8141275 -83.93452568 257.8141275 -83.9367218 256.61102295 C-83.85895531 252.0802347 -83.41916541 249.06047815 -80.5 245.53125 C-76.43210325 242.47732453 -72.96249019 242.0978351 -68.02726746 242.13252258 C-67.28387235 242.12587576 -66.54047725 242.11922893 -65.77455503 242.11238068 C-63.2886096 242.09375816 -60.8031458 242.09635541 -58.31713867 242.09887695 C-56.5331657 242.08985932 -54.74919893 242.0795321 -52.96524048 242.06799316 C-48.12476551 242.04039714 -43.28440803 242.0311351 -38.44386458 242.02513909 C-33.38426663 242.01576222 -28.32475666 241.98955938 -23.26521301 241.96513367 C-13.6853778 241.9214461 -4.10555965 241.89291298 5.47434491 241.86981028 C16.3811963 241.84277073 27.28795927 241.79885844 38.19474757 241.75352156 C60.62978379 241.66064294 83.06484774 241.58897691 105.5 241.53125 C105.54681257 220.11206784 105.5820341 198.69289417 105.60362434 177.27367115 C105.61391749 167.32736814 105.62794016 157.381097 105.65087891 147.43481445 C105.67087301 138.7611664 105.68373068 130.08754145 105.68817699 121.41387099 C105.6907742 116.82530621 105.69683754 112.23680746 105.71146011 107.64826393 C105.72513935 103.3202481 105.72920196 98.99232487 105.72621536 94.66428947 C105.72676094 93.08460103 105.73067631 91.50490916 105.73841095 89.92523956 C105.82340256 71.65502836 104.07709343 56.47383256 90.921875 42.72265625 C77.53465451 30.60938093 61.89133101 30.37184372 44.765625 30.36328125 C43.24021373 30.36005984 41.71480275 30.35669513 40.18939209 30.35319519 C37.00223068 30.34723442 33.81509627 30.3453521 30.62792969 30.34594727 C26.57921329 30.34604865 22.53067319 30.33240758 18.48199844 30.31517506 C15.3332238 30.30395956 12.18449049 30.30203097 9.03569794 30.30255699 C7.54483178 30.30139078 6.05396407 30.29704714 4.56311798 30.28922462 C-13.70107858 30.20236545 -28.63035954 32.02393746 -42.30859375 45.109375 Z M135.5 176.53125 C135.49413376 177.59756149 135.48826752 178.66387299 135.48222351 179.76249695 C135.42500685 189.8122144 135.35225068 199.86171524 135.26428509 209.91121197 C135.21956044 215.077755 135.18030885 220.2442188 135.15356445 225.41088867 C135.1275525 230.39716052 135.08716484 235.38312779 135.03681374 240.3692112 C135.02013079 242.27135237 135.00862541 244.17354625 135.00238609 246.07575035 C134.99276057 248.74052219 134.96471999 251.4045123 134.93237305 254.0690918 C134.93380814 254.85527893 134.93524323 255.64146606 134.9367218 256.45147705 C134.85895531 260.9822653 134.41916541 264.00202185 131.5 267.53125 C127.43210325 270.58517547 123.96249019 270.9646649 119.02726746 270.92997742 C118.28387235 270.93662424 117.54047725 270.94327107 116.77455503 270.95011932 C114.2886096 270.96874184 111.8031458 270.96614459 109.31713867 270.96362305 C107.5331657 270.97264068 105.74919893 270.9829679 103.96524048 270.99450684 C99.12476551 271.02210286 94.28440803 271.0313649 89.44386458 271.03736091 C84.38426663 271.04673778 79.32475666 271.07294062 74.26521301 271.09736633 C64.6853778 271.1410539 55.10555965 271.16958702 45.52565509 271.19268972 C34.6188037 271.21972927 23.71204073 271.26364156 12.80525243 271.30897844 C-9.62978379 271.40185706 -32.06484774 271.47352309 -54.5 271.53125 C-54.54681257 292.95043216 -54.5820341 314.36960583 -54.60362434 335.78882885 C-54.61391749 345.73513186 -54.62794016 355.681403 -54.65087891 365.62768555 C-54.67087301 374.3013336 -54.68373068 382.97495855 -54.68817699 391.64862901 C-54.6907742 396.23719379 -54.69683754 400.82569254 -54.71146011 405.41423607 C-54.72513935 409.7422519 -54.72920196 414.07017513 -54.72621536 418.39821053 C-54.72676094 419.97789897 -54.73067631 421.55759084 -54.73841095 423.13726044 C-54.82340256 441.40747164 -53.07709343 456.58866744 -39.921875 470.33984375 C-26.53465451 482.45311907 -10.89133101 482.69065628 6.234375 482.69921875 C7.75978627 482.70244016 9.28519725 482.70580487 10.81060791 482.70930481 C13.99776932 482.71526558 17.18490373 482.7171479 20.37207031 482.71655273 C24.42078671 482.71645135 28.46932681 482.73009242 32.51800156 482.74732494 C35.6667762 482.75854044 38.81550951 482.76046903 41.96430206 482.75994301 C43.45516822 482.76110922 44.94603593 482.76545286 46.43688202 482.77327538 C64.70107858 482.86013455 79.63035954 481.03856254 93.30859375 467.953125 C105.60685307 454.36146586 105.65835623 438.48554659 105.59765625 421.12109375 C105.59578796 419.5421198 105.594366 417.96314527 105.59336853 416.38417053 C105.5895757 412.25621908 105.57977353 408.12830359 105.56866455 404.00036621 C105.5583804 399.77694179 105.55385599 395.55351149 105.54882812 391.33007812 C105.53814793 383.0637857 105.521111 374.79752234 105.5 366.53125 C104.43368851 366.52538376 103.36737701 366.51951752 102.26875305 366.51347351 C92.2190356 366.45625685 82.16953476 366.38350068 72.12003803 366.29553509 C66.953495 366.25081044 61.7870312 366.21155885 56.62036133 366.18481445 C51.63408948 366.1588025 46.64812221 366.11841484 41.6620388 366.06806374 C39.75989763 366.05138079 37.85770375 366.03987541 35.95549965 366.03363609 C33.29072781 366.02401057 30.6267377 365.99596999 27.9621582 365.96362305 C27.17597107 365.96505814 26.38978394 365.96649323 25.57977295 365.9679718 C21.04673109 365.89016663 18.10707182 365.33233455 14.5 362.53125 C11.66521573 358.8670747 11.08987803 356.12052015 11.125 351.53125 C11.11339844 350.0153125 11.11339844 350.0153125 11.1015625 348.46875 C11.56574059 345.04657431 12.3906745 343.25771441 14.5 340.53125 C18.59332011 337.4259019 22.1364195 337.10208009 27.11303711 337.14598083 C28.2511232 337.13812729 28.2511232 337.13812729 29.41220093 337.13011509 C31.95074439 337.11616359 34.48877867 337.12345261 37.02734375 337.13061523 C38.84933422 337.12487192 40.67132088 337.11778882 42.49330139 337.10946655 C46.41654993 337.09435119 50.33966237 337.08857944 54.26293945 337.08999443 C60.47549992 337.09202943 66.68787795 337.07244948 72.90039062 337.04981995 C84.97887626 337.00882521 97.05734762 336.99024749 109.13588715 336.97364807 C124.48097462 336.95130598 139.82601972 336.91757812 155.17103863 336.86644894 C161.33675146 336.84661054 167.50236926 336.83695274 173.66811275 336.83549678 C177.5200987 336.8327296 181.37203299 336.82186202 185.22399712 336.80898666 C186.99879918 336.80473759 188.77361316 336.80382606 190.54841805 336.80666161 C209.27666207 336.83312971 225.09034196 335.55517647 239.30859375 321.953125 C251.42186907 308.56590451 251.65940628 292.92258101 251.66796875 275.796875 C251.67119016 274.27146373 251.67455487 272.74605275 251.67805481 271.22064209 C251.68401558 268.03348068 251.6858979 264.84634627 251.68530273 261.65917969 C251.68520135 257.61046329 251.69884242 253.56192319 251.71607494 249.51324844 C251.72729044 246.3644738 251.72921903 243.21574049 251.72869301 240.06694794 C251.72985922 238.57608178 251.73420286 237.08521407 251.74202538 235.59436798 C251.82888455 217.33017142 250.00731254 202.40089046 236.921875 188.72265625 C223.33021586 176.42439693 207.45429659 176.37289377 190.08984375 176.43359375 C188.5108698 176.43546204 186.93189527 176.436884 185.35292053 176.43788147 C181.22496908 176.4416743 177.09705359 176.45147647 172.96911621 176.46258545 C168.74569179 176.4728696 164.52226149 176.47739401 160.29882812 176.48242188 C152.0325357 176.49310207 143.76627234 176.510139 135.5 176.53125 Z " fill="#000000" transform="translate(230.5,-0.53125)"/>
<path d="M0 0 C4.61581142 2.18643699 6.72864085 4.49599804 9 9 C9.82885269 14.54808604 9.7240695 19.47140883 7.3125 24.5625 C4.21064779 27.8320199 1.61649202 29.75850523 -2.90234375 30.43359375 C-9.05071801 30.44150672 -13.31314296 30.4465054 -18 26 C-21.88937897 20.55860924 -21.79042609 15.48149391 -21 9 C-16.63929544 -0.20593186 -9.3488659 -1.1401056 0 0 Z " fill="#000000" transform="translate(297,407)"/>
<path d="M0 0 C4.61581142 2.18643699 6.72864085 4.49599804 9 9 C9.82885269 14.54808604 9.7240695 19.47140883 7.3125 24.5625 C4.21064779 27.8320199 1.61649202 29.75850523 -2.90234375 30.43359375 C-9.05071801 30.44150672 -13.31314296 30.4465054 -18 26 C-21.88937897 20.55860924 -21.79042609 15.48149391 -21 9 C-16.63929544 -0.20593186 -9.3488659 -1.1401056 0 0 Z " fill="#000000" transform="translate(227,75)"/>
</svg>
