<?xml version="1.0" encoding="UTF-8"?>
<svg version="1.1" xmlns="http://www.w3.org/2000/svg" width="512" height="512">
<path d="M0 0 C2.21393696 1.67309823 4.31641845 3.42137642 6.41015625 5.2421875 C7.58771484 6.22251953 7.58771484 6.22251953 8.7890625 7.22265625 C27.08640285 22.94290641 41.33883224 44.99177012 50.41015625 67.2421875 C50.41015625 67.9021875 50.41015625 68.5621875 50.41015625 69.2421875 C51.43286621 69.10071289 52.45557617 68.95923828 53.50927734 68.81347656 C63.31300781 67.52107171 72.93643098 66.92463017 82.82226562 66.98144531 C85.04194199 66.99222044 87.26081562 66.98143373 89.48046875 66.96875 C102.00601867 66.95535351 114.37570157 67.95308855 126.47265625 71.4296875 C127.22232666 71.64326904 127.97199707 71.85685059 128.74438477 72.0769043 C149.64934198 78.3406201 165.99459233 91.16820859 176.41015625 110.2421875 C187.03589982 132.70289969 185.20387258 157.96310766 177.34765625 180.9921875 C169.91809298 201.69240503 159.70233127 222.01502949 145.578125 238.98046875 C144.13848657 241.1840493 144.13848657 241.1840493 144.90625 243.6015625 C146.81789883 246.95811992 149.02207334 250.05683074 151.28515625 253.1796875 C171.09110212 281.36901503 188.15904856 318.00887637 182.58837891 353.25878906 C179.09075675 372.82492638 170.06406979 388.55625181 153.7890625 400.1015625 C145.0732886 405.88735284 136.07178104 409.8882201 126.09765625 412.9296875 C125.44716309 413.13223145 124.79666992 413.33477539 124.12646484 413.54345703 C111.89515574 417.09352714 99.57659479 417.56808553 86.94262695 417.50292969 C84.47907831 417.49221543 82.016261 417.50288727 79.55273438 417.515625 C69.66814738 417.52303724 60.17107164 416.8448212 50.41015625 415.2421875 C49.98259033 416.58543091 49.98259033 416.58543091 49.54638672 417.95581055 C39.13989958 448.05502055 15.41718431 476.78459007 -12.5078125 491.8125 C-15.16758457 493.09441035 -17.82477383 494.20832705 -20.58984375 495.2421875 C-21.42773438 495.56058594 -22.265625 495.87898438 -23.12890625 496.20703125 C-38.83222697 501.11714738 -56.59791528 499.54047253 -71.58984375 493.2421875 C-72.63011719 492.819375 -73.67039063 492.3965625 -74.7421875 491.9609375 C-98.91333729 481.03468845 -116.10026821 457.83762022 -128.58984375 435.2421875 C-129.00314941 434.49775391 -129.41645508 433.75332031 -129.84228516 432.98632812 C-131.12480466 430.66149021 -132.39242429 428.32934307 -133.65234375 425.9921875 C-134.24450684 424.90067383 -134.24450684 424.90067383 -134.84863281 423.78710938 C-137.58984375 418.59970572 -137.58984375 418.59970572 -137.58984375 415.2421875 C-138.53166504 415.38293701 -139.47348633 415.52368652 -140.44384766 415.66870117 C-150.19431725 417.04995635 -159.77254627 417.58551207 -169.61621094 417.55786133 C-171.95685399 417.5546983 -174.29622994 417.57829906 -176.63671875 417.60351562 C-203.3653487 417.71547806 -231.37636189 411.28266954 -250.921875 391.93359375 C-266.0552033 375.8465897 -271.3032351 356.99022439 -270.828125 335.34765625 C-270.01222874 313.81683711 -262.03413608 292.89972539 -251.58984375 274.2421875 C-251.20038574 273.54399902 -250.81092773 272.84581055 -250.40966797 272.12646484 C-245.46695663 263.34574501 -240.21030311 255.00027034 -234.109375 246.9765625 C-232.37522992 244.39464522 -232.37522992 244.39464522 -232.63671875 241.7109375 C-233.76374823 238.79174638 -235.21416516 236.54596016 -237.02734375 233.9921875 C-242.29293983 226.30573597 -247.01536696 218.35668341 -251.58984375 210.2421875 C-251.94578613 209.61924805 -252.30172852 208.99630859 -252.66845703 208.35449219 C-257.67767518 199.46895045 -261.19201734 190.20652854 -264.46484375 180.5546875 C-264.84648682 179.43852051 -265.22812988 178.32235352 -265.62133789 177.17236328 C-269.15140708 166.38767247 -270.98220918 155.65715368 -270.90234375 144.3046875 C-270.89497192 143.02464844 -270.89497192 143.02464844 -270.88745117 141.71875 C-270.5469625 123.14029119 -263.82627913 105.71343361 -251.02734375 92.1171875 C-230.40536975 72.49204608 -203.03340307 67.05404255 -175.46386719 67.05688477 C-173.12285618 67.05471805 -170.78233306 67.03656794 -168.44140625 67.01757812 C-158.02145248 66.98016431 -147.90620669 67.79339846 -137.58984375 69.2421875 C-137.3077002 68.18281982 -137.02555664 67.12345215 -136.73486328 66.03198242 C-135.7950133 62.92125934 -134.82386107 60.42602248 -133.26953125 57.60546875 C-132.82109863 56.78723633 -132.37266602 55.96900391 -131.91064453 55.12597656 C-131.19497314 53.85318848 -131.19497314 53.85318848 -130.46484375 52.5546875 C-129.96839355 51.66620117 -129.47194336 50.77771484 -128.96044922 49.86230469 C-113.64887264 22.72197864 -93.55303397 -1.69041875 -63.27734375 -12.1328125 C-40.9427868 -18.02596611 -18.77674355 -12.74439607 0 0 Z M-84.58984375 30.2421875 C-85.21890625 30.81839844 -85.84796875 31.39460938 -86.49609375 31.98828125 C-93.75056769 38.86354405 -99.10790477 47.25278625 -104.27734375 55.7421875 C-104.6336084 56.32226562 -104.98987305 56.90234375 -105.35693359 57.5 C-108.55818025 62.87040547 -111.07558151 68.52434211 -113.58984375 74.2421875 C-112.70353271 74.48956665 -112.70353271 74.48956665 -111.79931641 74.74194336 C-99.85971487 78.0961629 -88.00718657 81.64774465 -76.27734375 85.6796875 C-75.19348389 86.05182373 -74.10962402 86.42395996 -72.99291992 86.80737305 C-67.91476034 88.58962097 -62.94346958 90.47131572 -58.04296875 92.69921875 C-56.76353394 93.27748413 -56.76353394 93.27748413 -55.45825195 93.86743164 C-53.89666881 94.58995986 -52.34673292 95.33853428 -50.81323242 96.11889648 C-47.02727294 97.88855006 -44.54890334 98.60040411 -40.5 97.3203125 C-38.85256994 96.65347871 -37.21713479 95.95676219 -35.58984375 95.2421875 C-33.24969377 94.29120063 -30.90700053 93.34646021 -28.5625 92.40625 C-27.60484238 92.0179451 -27.60484238 92.0179451 -26.62783813 91.62179565 C-19.88602476 88.90791556 -13.02909533 86.58228558 -6.12817383 84.30957031 C-4.02295811 83.6157421 -1.92055216 82.91386508 0.18164062 82.2109375 C8.86479066 79.32300551 17.58898212 76.67782662 26.41015625 74.2421875 C13.63341255 47.43539554 -2.79157818 22.62708254 -31.35546875 11.12890625 C-52.52852595 5.32421545 -69.75202619 16.2204499 -84.58984375 30.2421875 Z M-233.98828125 109.40625 C-244.69817516 121.68344546 -247.61200539 135.2813228 -246.58984375 151.2421875 C-243.54541772 177.24880988 -230.81544224 201.31032267 -215.58984375 222.2421875 C-211.9159897 219.24312297 -208.53986066 216.30588494 -205.484375 212.67578125 C-201.00015863 207.48842735 -196.18482901 202.65316842 -191.33984375 197.8046875 C-190.46199219 196.91458984 -189.58414063 196.02449219 -188.6796875 195.10742188 C-183.38242569 189.79852625 -177.93192097 184.93119629 -172.00878906 180.32788086 C-167.33612544 176.29895824 -165.17864928 173.215989 -164.31640625 167.0703125 C-164.134729 165.86101074 -163.95305176 164.65170898 -163.76586914 163.40576172 C-163.58403076 162.11428223 -163.40219238 160.82280273 -163.21484375 159.4921875 C-162.80184999 156.76876601 -162.37228853 154.04814528 -161.9375 151.328125 C-161.82862961 150.64416656 -161.71975922 149.96020813 -161.60758972 149.25552368 C-159.14637106 134.10912977 -155.11377308 119.23070536 -150.50610352 104.60693359 C-149.21437207 100.49467992 -148.17120692 96.5305958 -147.58984375 92.2421875 C-174.83887242 86.98990356 -212.93238809 88.90690027 -233.98828125 109.40625 Z M60.41015625 92.2421875 C61.64038072 98.09178427 63.1040527 103.81041137 64.77050781 109.55004883 C70.20019683 128.26936363 75.40091325 147.41583322 77.12207031 166.88989258 C77.99638054 174.52514737 82.4270678 178.82270203 88.16015625 183.6171875 C88.8459375 184.20371094 89.53171875 184.79023438 90.23828125 185.39453125 C90.955 186.00425781 91.67171875 186.61398438 92.41015625 187.2421875 C98.71416995 192.69583964 104.69398471 198.42344013 110.59765625 204.3046875 C111.2628125 204.96525146 111.92796875 205.62581543 112.61328125 206.30639648 C116.54817134 210.25350977 120.27402268 214.30887719 123.8605957 218.57592773 C125.50384058 220.47187291 125.50384058 220.47187291 128.41015625 222.2421875 C146.17615896 197.36192264 163.70595106 165.44585398 158.66015625 133.7421875 C156.15592824 121.54694015 150.77322533 111.9036349 140.59765625 104.4296875 C126.97707284 95.62487941 110.62017913 91.06334303 94.4140625 91.109375 C93.28640724 91.10793991 93.28640724 91.10793991 92.13597107 91.10647583 C90.55345577 91.10579845 88.97093762 91.10762176 87.38842773 91.11181641 C84.98349681 91.1171634 82.57875325 91.11186025 80.17382812 91.10546875 C78.62890584 91.10612976 77.08398368 91.10741138 75.5390625 91.109375 C74.82843155 91.10735077 74.1178006 91.10532654 73.38563538 91.10324097 C68.95114764 91.12377207 64.77221832 91.52532149 60.41015625 92.2421875 Z M-123.58984375 97.2421875 C-128.54210101 111.13133387 -133.02941657 124.90394278 -136.21484375 139.3046875 C-136.47410645 140.46911377 -136.73336914 141.63354004 -137.00048828 142.83325195 C-138.52653924 148.14211722 -138.52653924 148.14211722 -137.58984375 153.2421875 C-136.52507812 152.48035156 -135.4603125 151.71851563 -134.36328125 150.93359375 C-114.84096666 137.02173799 -94.60037779 124.77030412 -73.58984375 113.2421875 C-75.95146503 110.5091511 -78.0571817 109.50309287 -81.46484375 108.375 C-82.44163086 108.04886719 -83.41841797 107.72273438 -84.42480469 107.38671875 C-85.46926758 107.05027344 -86.51373047 106.71382812 -87.58984375 106.3671875 C-88.65750977 106.01785156 -89.72517578 105.66851562 -90.82519531 105.30859375 C-97.61840498 103.11632245 -104.4408568 101.07473091 -111.33984375 99.2421875 C-112.1184375 99.03480957 -112.89703125 98.82743164 -113.69921875 98.61376953 C-117.1363817 97.7352982 -120.01735173 97.2421875 -123.58984375 97.2421875 Z M25.39453125 98.78125 C23.65187988 99.2772168 23.65187988 99.2772168 21.87402344 99.78320312 C20.64844727 100.14091797 19.42287109 100.49863281 18.16015625 100.8671875 C16.91137695 101.22748047 15.66259766 101.58777344 14.37597656 101.95898438 C4.92455239 104.71941583 -4.37817837 107.7680737 -13.58984375 111.2421875 C-13.58984375 111.9021875 -13.58984375 112.5621875 -13.58984375 113.2421875 C-13.09395752 113.50733154 -12.59807129 113.77247559 -12.0871582 114.0456543 C9.64100897 125.71140061 30.5791155 138.56409435 50.41015625 153.2421875 C52.40515444 149.25219111 49.95314853 143.91745794 48.97265625 139.7421875 C48.70622314 138.59556641 48.43979004 137.44894531 48.1652832 136.26757812 C43.71264942 116.27163118 43.71264942 116.27163118 36.41015625 97.2421875 C32.44032974 97.06240455 29.20745801 97.69108183 25.39453125 98.78125 Z M-49.84375 127.0859375 C-50.68381592 127.4991626 -51.52388184 127.9123877 -52.3894043 128.33813477 C-53.30117432 128.80147217 -54.21294434 129.26480957 -55.15234375 129.7421875 C-56.11760986 130.23066162 -57.08287598 130.71913574 -58.07739258 131.22241211 C-84.79965492 144.9738589 -111.17017897 161.36233466 -134.58984375 180.2421875 C-137.0500996 182.08914175 -139.51074034 183.93526216 -141.98046875 185.76953125 C-147.77370979 191.07062802 -146.1887565 206.95162819 -146.58984375 214.2421875 C-146.87271973 222.37995429 -146.87950488 230.51836114 -146.85058594 238.66015625 C-146.83985104 242.23975549 -146.85056688 245.81885313 -146.86328125 249.3984375 C-146.87152689 260.85359449 -146.62530938 272.25432449 -145.76171875 283.6796875 C-145.69261292 284.67452148 -145.62350708 285.66935547 -145.55230713 286.69433594 C-145.04256196 292.60918892 -144.30207242 296.66822188 -139.84179688 300.90112305 C-139.19146484 301.3887915 -138.54113281 301.87645996 -137.87109375 302.37890625 C-137.11795898 302.94681885 -136.36482422 303.51473145 -135.58886719 304.09985352 C-134.35185059 305.00562134 -134.35185059 305.00562134 -133.08984375 305.9296875 C-132.21618164 306.57542725 -131.34251953 307.22116699 -130.44238281 307.88647461 C-111.2759175 321.89774115 -91.36204289 334.7423501 -70.58984375 346.2421875 C-68.91921875 347.1707959 -68.91921875 347.1707959 -67.21484375 348.11816406 C-63.81044434 349.99575935 -60.39164727 351.8433466 -56.96484375 353.6796875 C-55.39065674 354.54170776 -55.39065674 354.54170776 -53.78466797 355.42114258 C-52.30764404 356.19687622 -52.30764404 356.19687622 -50.80078125 356.98828125 C-49.50599854 357.67942017 -49.50599854 357.67942017 -48.18505859 358.38452148 C-43.91485428 359.79573764 -40.79324547 358.7537521 -36.74755859 357.03393555 C-35.28890381 356.27657104 -35.28890381 356.27657104 -33.80078125 355.50390625 C-32.70411133 354.93704102 -31.60744141 354.37017578 -30.47753906 353.78613281 C-29.31834961 353.17350586 -28.15916016 352.56087891 -26.96484375 351.9296875 C-26.3678064 351.61672729 -25.77076904 351.30376709 -25.15563965 350.98132324 C-8.70183066 342.35293219 7.12636029 332.80312779 22.41015625 322.2421875 C23.0757959 321.78376465 23.74143555 321.3253418 24.42724609 320.85302734 C27.99034862 318.39126256 31.52592557 315.89887815 35.03125 313.35546875 C38.02143178 311.19156597 41.06754215 309.1817116 44.1953125 307.22265625 C52.97592392 301.76631295 52.97592392 301.76631295 57.8828125 293.0859375 C58.49579751 289.23630622 58.53168713 285.43146469 58.44042969 281.54101562 C58.41194855 279.37828692 58.51781102 277.2868997 58.69921875 275.1328125 C60.55960105 252.58192659 59.96150311 229.4928337 58.53515625 206.9296875 C58.45676514 205.6499707 58.37837402 204.37025391 58.29760742 203.05175781 C58.11889672 192.85867901 58.11889672 192.85867901 53.47412109 184.34692383 C50.89736165 182.21963527 48.24985926 180.25268861 45.53515625 178.3046875 C44.57786621 177.59812012 43.62057617 176.89155273 42.63427734 176.16357422 C36.93474262 171.98288482 31.18208518 167.89335264 25.23828125 164.06640625 C22.64526367 162.39383828 20.10854177 160.65364458 17.56982422 158.90039062 C1.96265234 148.22517046 -14.76614796 139.13809432 -31.46484375 130.3046875 C-32.42712891 129.7905127 -33.38941406 129.27633789 -34.38085938 128.74658203 C-35.71793945 128.05024658 -35.71793945 128.05024658 -37.08203125 127.33984375 C-38.24774658 126.72894897 -38.24774658 126.72894897 -39.43701172 126.10571289 C-43.41598771 124.50970041 -46.19850439 125.29051201 -49.84375 127.0859375 Z M-173.94140625 213.4609375 C-174.62847656 214.14671875 -175.31554687 214.8325 -176.0234375 215.5390625 C-177.10818359 216.62960938 -177.10818359 216.62960938 -178.21484375 217.7421875 C-178.91480469 218.43828125 -179.61476563 219.134375 -180.3359375 219.8515625 C-184.95922686 224.4834294 -189.34108235 229.26583973 -193.58984375 234.2421875 C-194.46008179 235.25442383 -194.46008179 235.25442383 -195.34790039 236.28710938 C-196.76467386 237.93640752 -198.17768893 239.58893308 -199.58984375 241.2421875 C-198.00853755 244.98140879 -195.65753977 247.53868487 -192.90234375 250.4921875 C-189.91062261 253.71911022 -186.9467137 256.95689956 -184.08984375 260.3046875 C-179.84722896 265.18673945 -175.31431569 269.82543978 -170.58984375 274.2421875 C-170.25984375 274.2421875 -169.92984375 274.2421875 -169.58984375 274.2421875 C-169.58984375 253.1221875 -169.58984375 232.0021875 -169.58984375 210.2421875 C-171.46628432 210.2421875 -172.69081978 212.21262424 -173.94140625 213.4609375 Z M82.41015625 211.2421875 C82.41015625 231.7021875 82.41015625 252.1621875 82.41015625 273.2421875 C91.43931878 267.22274581 98.40363427 259.46011748 105.41015625 251.2421875 C106.72082868 249.74059034 108.03329622 248.24055793 109.34765625 246.7421875 C109.93417969 246.071875 110.52070313 245.4015625 111.125 244.7109375 C111.54910156 244.22625 111.97320312 243.7415625 112.41015625 243.2421875 C110.79411152 239.31884191 108.09724449 236.52770643 105.22265625 233.4921875 C104.22050788 232.42006125 103.21920496 231.34714412 102.21875 230.2734375 C101.73390137 229.75394531 101.24905273 229.23445313 100.74951172 228.69921875 C99.04136393 226.84099308 97.41212977 224.92158669 95.78515625 222.9921875 C92.04650005 218.67276917 87.8545476 214.82822001 83.41015625 211.2421875 C83.08015625 211.2421875 82.75015625 211.2421875 82.41015625 211.2421875 Z M-215.58984375 262.2421875 C-234.6669243 286.07487266 -249.25416274 318.24113542 -246.58984375 349.2421875 C-245.081887 357.03602916 -242.37020094 363.90118428 -237.58984375 370.2421875 C-237.1721875 370.83386719 -236.75453125 371.42554688 -236.32421875 372.03515625 C-226.82871117 384.39568766 -209.07553291 390.55914033 -194.12304688 392.57470703 C-178.47750142 394.44804054 -163.17575722 394.64159786 -147.58984375 392.2421875 C-149.10049654 386.00808515 -150.68774454 379.80676193 -152.45703125 373.640625 C-155.89794633 361.63867917 -159.09155391 349.71011786 -161.40234375 337.4296875 C-161.60851318 336.35356201 -161.81468262 335.27743652 -162.02709961 334.16870117 C-162.87385 329.62530872 -163.64552449 325.1272058 -164.06640625 320.5234375 C-165.12293177 310.30799388 -169.12546079 305.48626588 -176.8515625 299.20703125 C-177.46185303 298.72484131 -178.07214355 298.24265137 -178.70092773 297.74584961 C-185.44497583 292.37728399 -191.57867651 286.40926399 -197.65234375 280.3046875 C-198.79799805 279.16483398 -198.79799805 279.16483398 -199.96679688 278.00195312 C-204.22572256 273.735741 -208.29718064 269.38580177 -212.17749023 264.77124023 C-213.5324174 263.12357224 -213.5324174 263.12357224 -215.58984375 262.2421875 Z M126.02734375 263.4921875 C125.16496094 264.3584375 125.16496094 264.3584375 124.28515625 265.2421875 C123.72570312 265.7990625 123.16625 266.3559375 122.58984375 266.9296875 C120.75943652 268.87162492 119.01708322 270.8491039 117.27734375 272.87109375 C112.94432727 277.84663566 108.32585341 282.51752262 103.66015625 287.1796875 C102.33769897 288.50311157 102.33769897 288.50311157 100.98852539 289.85327148 C95.67808383 295.12070164 90.33774672 300.11871388 84.40625 304.68359375 C83.74753906 305.19792969 83.08882813 305.71226562 82.41015625 306.2421875 C81.85070312 306.67789063 81.29125 307.11359375 80.71484375 307.5625 C78.76458267 310.07331516 78.60073749 312.42326346 78.09765625 315.5546875 C77.84850096 317.00037163 77.59698817 318.44565047 77.34375 319.890625 C77.20050293 320.72174805 77.05725586 321.55287109 76.90966797 322.40917969 C73.62609204 341.03215869 69.5632815 359.25212761 64.21728516 377.39160156 C62.82456046 382.31037153 61.61525177 387.27464313 60.41015625 392.2421875 C65.35641569 393.04192293 70.1734171 393.41394126 75.1875 393.4453125 C75.91651016 393.45101257 76.64552032 393.45671265 77.3966217 393.46258545 C78.93537981 393.47198169 80.47415754 393.47854788 82.01293945 393.48242188 C84.31044075 393.49203184 86.60700842 393.52306551 88.90429688 393.5546875 C110.20376117 393.70777579 131.45253232 389.02301834 147.59375 374.21875 C156.88311734 364.11032016 159.77243706 351.28158319 159.62109375 337.91796875 C158.08371889 311.12778832 145.26817844 282.82370488 128.41015625 262.2421875 C127.22312072 262.1304235 127.22312072 262.1304235 126.02734375 263.4921875 Z M-138.58984375 331.2421875 C-136.18952565 345.17144657 -133.09382339 358.70913978 -128.83984375 372.1796875 C-128.63771271 372.82046234 -128.43558167 373.46123718 -128.22732544 374.12142944 C-126.24565507 380.81378356 -126.24565507 380.81378356 -123.58984375 387.2421875 C-115.81532727 386.67977567 -108.78179885 384.75387665 -101.33984375 382.4921875 C-100.20160156 382.15703125 -99.06335938 381.821875 -97.890625 381.4765625 C-90.02374807 379.11917827 -82.05200686 376.70199853 -74.58984375 373.2421875 C-74.09484375 372.2521875 -74.09484375 372.2521875 -73.58984375 371.2421875 C-74.08572998 370.97704346 -74.58161621 370.71189941 -75.0925293 370.4387207 C-93.2409542 360.69492044 -110.73502449 350.0296126 -127.77929688 338.46533203 C-131.37049099 336.03924215 -134.98173305 333.64301581 -138.58984375 331.2421875 Z M50.41015625 331.2421875 C49.34539062 332.00402344 48.280625 332.76585937 47.18359375 333.55078125 C27.70994047 347.43019326 7.47174339 359.9056277 -13.58984375 371.2421875 C-11.22822247 373.9752239 -9.1225058 374.98128213 -5.71484375 376.109375 C-4.73805664 376.43550781 -3.76126953 376.76164062 -2.75488281 377.09765625 C-1.71041992 377.43410156 -0.66595703 377.77054687 0.41015625 378.1171875 C2.01165527 378.64119141 2.01165527 378.64119141 3.64550781 379.17578125 C10.43871748 381.36805255 17.2611693 383.40964409 24.16015625 385.2421875 C24.93875 385.44956543 25.71734375 385.65694336 26.51953125 385.87060547 C29.9566942 386.7490768 32.83766423 387.2421875 36.41015625 387.2421875 C41.20513656 373.95597883 45.26863254 360.61675934 48.47265625 346.8671875 C48.70893234 345.86748932 48.70893234 345.86748932 48.94998169 344.84759521 C51.18178012 337.94568011 51.18178012 337.94568011 50.41015625 331.2421875 Z M-49.84423828 388.52807617 C-70.2644093 397.61066758 -92.07120117 404.29581451 -113.58984375 410.2421875 C-100.96837818 436.39144728 -84.90894958 462.29454595 -56.58984375 473.2421875 C-43.67778887 476.9044798 -30.62390045 474.23545207 -19.14453125 467.890625 C-13.03797675 464.08200739 -7.77742008 459.19973369 -2.58984375 454.2421875 C-2.04271729 453.72350098 -1.49559082 453.20481445 -0.93188477 452.67041016 C3.2851139 448.58214396 6.85719529 444.30072425 10.22265625 439.4921875 C10.72893555 438.77426025 11.23521484 438.05633301 11.75683594 437.31665039 C17.43756415 429.05546647 21.96098402 420.20943507 26.41015625 411.2421875 C23.96641526 408.79844651 22.29620616 408.49997952 18.96875 407.61328125 C17.27516357 407.15091064 17.27516357 407.15091064 15.54736328 406.67919922 C13.7160083 406.18444092 13.7160083 406.18444092 11.84765625 405.6796875 C-5.93139968 400.73889953 -23.38396001 394.85687597 -40.2109375 387.23828125 C-44.16294208 385.58350101 -46.04268473 386.82794944 -49.84423828 388.52807617 Z " fill="#00CDDD" transform="translate(299.58984375,13.7578125)"/>
<path d="M0 0 C1.051875 0.7425 2.10375 1.485 3.1875 2.25 C12.76312196 11.61283036 17.7374781 23.23693063 18.25 36.5625 C18.08915442 47.25873098 15.18128036 56.31450863 9 65 C8.2575 66.051875 7.515 67.10375 6.75 68.1875 C-2.61283036 77.76312196 -14.23693063 82.7374781 -27.5625 83.25 C-38.25873098 83.08915442 -47.31450863 80.18128036 -56 74 C-57.051875 73.2575 -58.10375 72.515 -59.1875 71.75 C-68.76312196 62.38716964 -73.7374781 50.76306937 -74.25 37.4375 C-74.08915442 26.74126902 -71.18128036 17.68549137 -65 9 C-64.2575 7.948125 -63.515 6.89625 -62.75 5.8125 C-45.81597849 -11.50638563 -19.75756877 -14.06104346 0 0 Z M-45.5234375 23.046875 C-49.56478872 28.39257767 -50.91407418 34.39549218 -50 41 C-48.61167726 47.51636171 -45.287971 52.00229393 -40 56 C-34.24056295 59.24832249 -28.38909208 59.93510407 -21.96484375 58.56640625 C-15.74438875 56.6367468 -11.10070212 52.72464914 -7.8984375 47.046875 C-5.34802244 40.9926187 -5.1199653 35.19945968 -7.0625 28.9375 C-9.56698339 22.99227775 -13.99227775 18.56698339 -19.9375 16.0625 C-29.79265262 13.00531393 -38.56078712 15.48015907 -45.5234375 23.046875 Z " fill="#00CDDD" transform="translate(284,219)"/>
</svg>
